<?xml version="1.0" encoding="utf-8"?>
<!-- Generator: Adobe Illustrator 16.0.0, SVG Export Plug-In . SVG Version: 6.00 Build 0)  -->
<!DOCTYPE svg PUBLIC "-//W3C//DTD SVG 1.1//EN" "http://www.w3.org/Graphics/SVG/1.1/DTD/svg11.dtd">
<svg version="1.1" id="Capa_1" xmlns="http://www.w3.org/2000/svg" xmlns:xlink="http://www.w3.org/1999/xlink" x="0px" y="0px"
	 width="512px" height="512px" viewBox="0 0 512 512" enable-background="new 0 0 512 512" xml:space="preserve">
<path fill="#ED7161" d="M509.421,194.366c-0.637,3.216-0.667,6.536-1.912,9.575c-7.381,17.815-21.179,32.562-31.361,48.984
	c-13.117,20.957-124.558-24.203-110.196-52.186c5.41-10.346,26.5-38.921,28.102-50.407c1.452-10.242-12.124-18.275-24.663-19.312
	c-33.065-2.668-75.351-0.252-110.462-0.03v0.03c-0.934,0-1.972,0-2.92-0.015c-0.963,0.015-2.001,0.015-2.919,0.015v-0.03
	c-35.126-0.222-77.382-2.638-110.463,0.03c-12.539,1.037-26.115,9.07-24.663,19.327c1.586,11.486,22.691,40.062,28.101,50.407
	c14.392,27.982-97.094,73.143-110.211,52.186c-10.197-16.407-23.966-31.169-31.347-48.984c-1.245-3.038-1.29-6.373-1.927-9.574
	c-16.348-73.069,46.672-147.62,141.558-155.253c36.253-2.949,72.58-4.609,108.951-5.247v-0.208c0.978,0.03,1.941,0.089,2.919,0.104
	c0.979-0.015,1.942-0.074,2.92-0.104v0.193c36.355,0.652,72.683,2.297,108.936,5.247
	C462.764,46.746,525.784,121.327,509.421,194.366z"/>
<path fill="#ED7161" d="M444.267,446.476c1.022,17.533-10.419,31.836-25.537,31.836H93.27c-15.073,0-26.56-14.332-25.522-31.836
	l9.5-159.817c34.489-8.078,78.567-29.184,94.56-55.388c8.907-14.599,9.856-31.036,2.534-45.279
	c-1.853-3.557-5.321-9.115-9.308-15.31l-0.015-0.03c-0.118-0.282-0.118-0.282-0.207-0.474h177.158
	c-0.089,0.252-0.119,0.296-0.267,0.652c-2.224,5.351-2.979,9.456-2.564,12.554c-0.504,0.904-1.216,2.045-1.601,2.787
	c-7.232,14.05-6.284,30.502,2.623,45.086c15.992,26.234,60.041,47.295,94.53,55.372L444.267,446.476z"/>
<path fill="#00C7FA" d="M318.257,280.596c-34.118-34.104-89.565-34.104-123.698,0c-34.104,34.104-34.104,89.58,0,123.684
	c30.873,30.873,79.22,33.688,113.397,8.686l-21.388-21.357c-22.262,13.665-51.785,10.997-71.053-8.285
	c-22.543-22.543-22.543-59.211,0.015-81.77c22.543-22.543,59.21-22.543,81.768,0c19.18,19.179,21.892,48.495,8.419,70.728
	l21.417,21.417C351.945,359.519,349.025,311.38,318.257,280.596z"/>
</svg>
