<?xml version="1.0" encoding="utf-8"?>
<!-- Generator: Adobe Illustrator 16.0.0, SVG Export Plug-In . SVG Version: 6.00 Build 0)  -->
<!DOCTYPE svg PUBLIC "-//W3C//DTD SVG 1.1//EN" "http://www.w3.org/Graphics/SVG/1.1/DTD/svg11.dtd">
<svg version="1.1" id="Layer_1" xmlns="http://www.w3.org/2000/svg" xmlns:xlink="http://www.w3.org/1999/xlink" x="0px" y="0px"
	 width="1280px" height="800px" viewBox="0 0 1280 800" enable-background="new 0 0 1280 800" xml:space="preserve">
<rect x="-0.5" y="0.5" fill="#7A9AF4" stroke="#000000" stroke-miterlimit="10" width="1280" height="800"/>
<g>
	<g>
		<g>
			<path fill="none" stroke="#F1F1F1" stroke-width="3.4412" stroke-miterlimit="10" d="M425.743,567.163
				c-0.661-0.937-1.317-1.876-1.967-2.82"/>
			<path fill="none" stroke="#F1F1F1" stroke-width="3.4412" stroke-miterlimit="10" stroke-dasharray="6.9017,6.9017" d="
				M419.934,558.614c-28.954-44.33-45.787-97.295-45.783-154.192c0-155.92,126.397-282.32,282.32-282.32
				c155.922,0,282.32,126.4,282.32,282.32c0,125.332-81.667,231.588-194.687,268.455"/>
			<path fill="none" stroke="#F1F1F1" stroke-width="3.4412" stroke-miterlimit="10" d="M740.81,673.929
				c-1.095,0.343-2.191,0.678-3.291,1.007"/>
		</g>
	</g>
	<g>
		<g>
			<rect x="557.793" y="569.641" fill="#CBCBCB" width="148.593" height="48.979"/>
			<rect x="538.738" y="607.091" fill="#F1F1F1" width="186.705" height="11.529"/>
			<path fill="#F1F1F1" d="M825.441,566.794c0,6.366-5.161,11.526-11.521,11.526H450.266c-6.368,0-11.529-5.16-11.529-11.526
				V307.882c0-6.36,5.161-11.522,11.529-11.522H813.92c6.36,0,11.521,5.162,11.521,11.522V566.794z"/>
			<path d="M825.441,541.78V307.882c0-6.36-5.161-11.522-11.521-11.522H450.266c-6.368,0-11.529,5.162-11.529,11.522V541.78H825.441
				z"/>
			<rect x="455.185" y="312.804" fill="#00445C" width="353.812" height="219.231"/>
			<rect x="455.185" y="312.804" fill="#CBCBCB" width="353.812" height="18.273"/>
			<rect x="500.448" y="317.71" fill="#F1F1F1" width="263.287" height="8.453"/>
			<path fill="#FF1D25" d="M467.256,321.941c0,2.333-1.894,4.223-4.229,4.223c-2.33,0-4.222-1.89-4.222-4.223
				c0-2.333,1.892-4.23,4.222-4.23C465.362,317.71,467.256,319.607,467.256,321.941z"/>
			<path fill="#FBED21" d="M479.323,321.941c0,2.333-1.891,4.223-4.225,4.223c-2.33,0-4.226-1.89-4.226-4.223
				c0-2.333,1.896-4.23,4.226-4.23C477.432,317.71,479.323,319.607,479.323,321.941z"/>
			<path fill="#8BC53F" d="M491.391,321.941c0,2.333-1.893,4.223-4.222,4.223c-2.333,0-4.227-1.89-4.227-4.223
				c0-2.333,1.894-4.23,4.227-4.23C489.498,317.71,491.391,319.607,491.391,321.941z"/>
			<rect x="768.006" y="317.71" fill="#808080" width="19.795" height="1.077"/>
			<rect x="768.006" y="320.17" fill="#808080" width="19.795" height="1.076"/>
			<rect x="768.006" y="322.631" fill="#808080" width="19.795" height="1.076"/>
			<rect x="768.006" y="325.09" fill="#808080" width="19.795" height="1.074"/>
			<rect x="792.299" y="317.71" fill="#808080" width="10.986" height="8.453"/>
			<path d="M641.104,561.719c0,4.979-4.037,9.015-9.016,9.015c-4.973,0-9.015-4.036-9.015-9.015c0-4.977,4.042-9.008,9.015-9.008
				C637.066,552.711,641.104,556.742,641.104,561.719z"/>
		</g>
		<rect x="491.892" y="105.544" fill="#00445C" width="280.398" height="18.183"/>
		<rect x="491.892" y="123.727" fill="#71A9BB" width="280.398" height="38.173"/>
		<rect x="491.892" y="161.9" fill="#F1F1F1" width="280.398" height="370.135"/>
		<rect x="498.097" y="128.201" fill="#FF8756" width="78.352" height="28.633"/>
		<rect x="594.416" y="146.944" fill="#FF8756" width="25.618" height="9.364"/>
		<rect x="628.294" y="146.944" fill="#9ED9A5" width="25.617" height="9.364"/>
		<rect x="662.168" y="146.944" fill="#FF8756" width="25.623" height="9.364"/>
		<rect x="696.049" y="146.944" fill="#FF8756" width="25.622" height="9.364"/>
		<rect x="729.929" y="146.944" fill="#FF8756" width="25.62" height="9.364"/>
		<g>
			<rect x="500.148" y="182.786" fill="#FACC5D" width="78.349" height="33.662"/>
			<rect x="592.915" y="182.786" fill="#9ED9A5" width="171.118" height="33.662"/>
		</g>
		<g>
			<rect x="500.448" y="254.575" fill="#FF8756" width="263.584" height="33.666"/>
		</g>
		<g>
			<rect x="500.148" y="220.699" fill="#4D4D4D" width="78.349" height="1.606"/>
			<rect x="500.148" y="224.935" fill="#4D4D4D" width="78.349" height="1.6"/>
			<rect x="500.148" y="229.168" fill="#4D4D4D" width="78.349" height="1.6"/>
			<rect x="500.148" y="233.401" fill="#4D4D4D" width="78.349" height="1.602"/>
			<rect x="500.148" y="237.639" fill="#4D4D4D" width="78.349" height="1.6"/>
			<rect x="500.148" y="241.869" fill="#4D4D4D" width="78.349" height="1.606"/>
			<rect x="500.148" y="246.104" fill="#4D4D4D" width="78.349" height="1.6"/>
		</g>
		<g>
			<rect x="592.915" y="220.699" fill="#4D4D4D" width="171.118" height="1.606"/>
			<rect x="592.915" y="224.935" fill="#4D4D4D" width="171.118" height="1.6"/>
			<rect x="592.915" y="229.168" fill="#4D4D4D" width="171.118" height="1.6"/>
			<rect x="592.915" y="233.401" fill="#4D4D4D" width="171.118" height="1.602"/>
			<rect x="592.915" y="237.639" fill="#4D4D4D" width="171.118" height="1.6"/>
			<rect x="592.915" y="241.869" fill="#4D4D4D" width="171.118" height="1.606"/>
			<rect x="592.915" y="246.104" fill="#4D4D4D" width="171.118" height="1.6"/>
		</g>
		<g>
			<rect x="500.448" y="293" fill="#4D4D4D" width="263.584" height="1.606"/>
			<rect x="500.448" y="297.237" fill="#4D4D4D" width="263.584" height="1.599"/>
			<rect x="500.448" y="301.473" fill="#4D4D4D" width="263.584" height="1.603"/>
		</g>
		<g>
			<g>
				<rect x="685.68" y="397.68" fill="#FF8756" width="78.353" height="33.664"/>
				<rect x="500.145" y="397.68" fill="#9ED9A5" width="171.117" height="33.664"/>
			</g>
			<g>
				<rect x="500.145" y="469.471" fill="#FACC5D" width="263.587" height="33.664"/>
			</g>
			<g>
				<rect x="685.68" y="435.595" fill="#4D4D4D" width="78.353" height="1.604"/>
				<rect x="685.68" y="439.828" fill="#4D4D4D" width="78.353" height="1.603"/>
				<rect x="685.68" y="444.062" fill="#4D4D4D" width="78.353" height="1.603"/>
				<rect x="685.68" y="448.297" fill="#4D4D4D" width="78.353" height="1.602"/>
				<rect x="685.68" y="452.532" fill="#4D4D4D" width="78.353" height="1.601"/>
				<rect x="685.68" y="456.765" fill="#4D4D4D" width="78.353" height="1.604"/>
				<rect x="685.68" y="460.999" fill="#4D4D4D" width="78.353" height="1.602"/>
			</g>
			<g>
				<rect x="500.145" y="435.595" fill="#4D4D4D" width="171.117" height="1.604"/>
				<rect x="500.145" y="439.828" fill="#4D4D4D" width="171.117" height="1.603"/>
				<rect x="500.145" y="444.062" fill="#4D4D4D" width="171.117" height="1.603"/>
				<rect x="500.145" y="448.297" fill="#4D4D4D" width="171.117" height="1.602"/>
				<rect x="500.145" y="452.532" fill="#4D4D4D" width="171.117" height="1.601"/>
				<rect x="500.145" y="456.765" fill="#4D4D4D" width="171.117" height="1.604"/>
				<rect x="500.145" y="460.999" fill="#4D4D4D" width="171.117" height="1.602"/>
			</g>
			<g>
				<rect x="500.145" y="507.896" fill="#4D4D4D" width="263.587" height="1.604"/>
				<rect x="500.145" y="512.13" fill="#4D4D4D" width="263.587" height="1.603"/>
				<rect x="500.145" y="516.368" fill="#4D4D4D" width="263.587" height="1.603"/>
			</g>
		</g>
		<rect x="500.448" y="312.804" fill="#FACC5D" width="76.001" height="76.004"/>
		<rect x="594.239" y="312.804" fill="#71A9BB" width="76.003" height="76.004"/>
		<rect x="688.03" y="312.804" fill="#9ED9A5" width="76.002" height="76.004"/>
	</g>
	<g>
		<circle fill="#F1F1F1" cx="896.291" cy="549.13" r="50.982"/>
		<path fill="#FFFFFF" d="M896.152,498.149c-28.095,0.077-50.844,22.874-50.844,50.98c0,28.112,22.749,50.903,50.844,50.98V498.149z
			"/>
		<path fill="#E4E4E4" d="M896.077,505.654c25.013,0,46.367,18.354,51.163,42.118c-0.724-27.527-23.25-49.626-50.949-49.626
			c-26.898,0-48.918,20.837-50.829,47.25C851.155,522.798,871.908,505.654,896.077,505.654z"/>
		<path fill="#5786A4" d="M896.291,498.663c27.872,0,50.469,22.596,50.469,50.467c0,27.873-22.597,50.468-50.469,50.468
			s-50.468-22.595-50.468-50.468C845.823,521.259,868.419,498.663,896.291,498.663 M896.291,492.088
			c-31.456,0-57.043,25.593-57.043,57.042c0,31.457,25.587,57.044,57.043,57.044c31.452,0,57.043-25.587,57.043-57.044
			C953.334,517.681,927.743,492.088,896.291,492.088L896.291,492.088z"/>
		<g>
			<path fill="#666666" d="M896.911,591.365v-1.942h-1.289v1.942c-0.872,0.277-1.509,1.081-1.509,2.044s0.637,1.766,1.509,2.044
				v1.943h1.289v-1.943c0.871-0.278,1.507-1.081,1.507-2.044S897.782,591.643,896.911,591.365z"/>
			<path fill="#666666" d="M896.951,502.528v-2.131h-1.287v2.13c-0.875,0.273-1.518,1.08-1.518,2.043s0.643,1.774,1.518,2.044v1.755
				h1.287v-1.758c0.865-0.275,1.501-1.082,1.501-2.041C898.452,503.612,897.816,502.809,896.951,502.528z"/>
			
				<rect x="914.537" y="586.814" transform="matrix(-0.4999 -0.8661 0.8661 -0.4999 868.8513 1676.6409)" fill="#666666" width="7.975" height="1.284"/>
			
				<rect x="930.839" y="570.528" transform="matrix(-0.8658 -0.5004 0.5004 -0.8658 1458.3242 1533.5031)" fill="#666666" width="7.971" height="1.287"/>
			<path fill="#666666" d="M944.787,548.272h-2.074c-0.298-0.823-1.082-1.416-2.009-1.416c-0.934,0-1.72,0.593-2.015,1.416h-1.876
				v1.288h1.818c0.245,0.919,1.076,1.601,2.072,1.601c0.991,0,1.82-0.682,2.068-1.601h2.015V548.272z"/>
			
				<rect x="934.203" y="522.674" transform="matrix(0.4996 0.8663 -0.8663 0.4996 924.0573 -546.2759)" fill="#666666" width="1.286" height="7.971"/>
			
				<rect x="917.918" y="506.372" transform="matrix(-0.8661 -0.4999 0.4999 -0.8661 1458.9844 1411.5583)" fill="#666666" width="1.285" height="7.972"/>
			
				<rect x="870.06" y="509.698" transform="matrix(-0.5006 -0.8657 0.8657 -0.5006 869.8408 1522.4573)" fill="#666666" width="7.972" height="1.28"/>
			<polygon fill="#666666" points="853.973,525.189 860.879,529.172 861.521,528.06 854.618,524.07 			"/>
			<path fill="#666666" d="M855.759,549.517v-1.283h-1.883c-0.3-0.822-1.086-1.411-2.011-1.411c-0.93,0-1.711,0.589-2.016,1.411
				h-2.062v1.288h2.001c0.244,0.921,1.076,1.603,2.077,1.603c0.992,0,1.829-0.682,2.072-1.603L855.759,549.517z"/>
			
				<rect x="857.083" y="567.151" transform="matrix(-0.4998 -0.8661 0.8661 -0.4998 791.7471 1599.5006)" fill="#666666" width="1.288" height="7.968"/>
			<polygon fill="#666666" points="871.463,590.562 872.579,591.21 876.559,584.302 875.446,583.658 			"/>
		</g>
		<path fill="#2D688D" d="M896.291,492.088c-0.009,0-0.018,0-0.025,0v6.575c0.008,0,0.017,0,0.025,0
			c27.872,0,50.469,22.596,50.469,50.467c0,27.873-22.597,50.468-50.469,50.468c-0.009,0-0.018-0.001-0.025-0.001v6.577
			c0.008,0,0.017,0,0.025,0c31.452,0,57.043-25.587,57.043-57.044C953.334,517.681,927.743,492.088,896.291,492.088z"/>
		<g>
			<g>
				<path fill="#81A4BB" d="M894.857,547.701c-0.78,0.777-0.78,2.039,0,2.816l18.739,18.744c0.39,0.39,0.899,0.583,1.408,0.583
					c0.51,0,1.022-0.193,1.413-0.583c0.776-0.78,0.776-2.041,0-2.821l-18.743-18.739
					C896.896,546.921,895.636,546.921,894.857,547.701z M915.898,568.779c-0.531,0.529-1.396,0.529-1.927,0
					c-0.53-0.535-0.53-1.396,0-1.926c0.53-0.532,1.396-0.532,1.927,0C916.429,567.384,916.429,568.244,915.898,568.779z"/>
				<path fill="#5786A4" d="M915.005,569.845c0.51,0,1.022-0.193,1.413-0.583c0.191-0.193,0.339-0.418,0.438-0.659l-0.596-0.596
					c-0.039,0.279-0.145,0.558-0.361,0.772c-0.531,0.529-1.396,0.529-1.927,0c-0.53-0.535-0.53-1.396,0-1.926
					c0.219-0.215,0.491-0.322,0.773-0.362l-19.23-19.229c-0.242,0.095-0.464,0.246-0.657,0.439c-0.78,0.777-0.78,2.039,0,2.816
					l18.739,18.744C913.986,569.651,914.496,569.845,915.005,569.845z"/>
				<path fill="#2D688D" d="M915.005,569.845c0.275,0,0.552-0.062,0.808-0.175l-0.56-0.555c-0.447,0.108-0.933,0.01-1.281-0.336
					c-0.347-0.35-0.441-0.838-0.335-1.283l-19.192-19.19c-0.32,0.73-0.188,1.615,0.413,2.212l18.739,18.744
					C913.986,569.651,914.496,569.845,915.005,569.845z"/>
			</g>
			<g>
				<path fill="#81A4BB" d="M896.266,551.124c1.103,0,1.992-0.893,1.992-1.994v-47.681c0-1.103-0.89-1.995-1.992-1.995
					c-1.102,0-1.992,0.893-1.992,1.995v47.681C894.273,550.231,895.164,551.124,896.266,551.124z M896.266,500.29
					c0.753,0,1.362,0.61,1.362,1.358c0,0.753-0.609,1.359-1.362,1.359s-1.363-0.606-1.363-1.359
					C894.902,500.9,895.513,500.29,896.266,500.29z"/>
				<path fill="#5786A4" d="M896.266,499.454c-0.248,0-0.488,0.05-0.707,0.134v0.927c0.209-0.133,0.442-0.225,0.707-0.225
					c0.753,0,1.362,0.61,1.362,1.358c0,0.753-0.609,1.359-1.362,1.359c-0.265,0-0.498-0.09-0.707-0.224v48.205
					c0.219,0.083,0.459,0.135,0.707,0.135c1.103,0,1.992-0.893,1.992-1.994v-47.681
					C898.258,500.347,897.368,499.454,896.266,499.454z"/>
				<path fill="#2D688D" d="M897.223,499.708v0.974c0.248,0.247,0.405,0.586,0.405,0.967c0,0.383-0.157,0.723-0.405,0.971v48.252
					c0.611-0.34,1.035-0.985,1.035-1.741v-47.681C898.258,500.693,897.834,500.046,897.223,499.708z"/>
			</g>
			<path fill="#2D688D" d="M898.418,548.989c0,1.178-0.958,2.135-2.136,2.135c-1.177,0-2.136-0.957-2.136-2.135
				c0-1.179,0.959-2.136,2.136-2.136C897.46,546.854,898.418,547.811,898.418,548.989z"/>
			<path fill="#5786A4" d="M898.418,548.741c0,1.178-0.958,2.135-2.136,2.135c-1.177,0-2.136-0.957-2.136-2.135
				c0-1.179,0.959-2.136,2.136-2.136C897.46,546.605,898.418,547.562,898.418,548.741z"/>
		</g>
	</g>
	<g>
		<g>
			<path fill="#C0272D" d="M953.006,240.956c0,0-27.435-5.045-54.554-5.045c-27.12,0-54.555,5.045-54.555,5.045
				s-5.676,18.921-5.676,44.148c0,25.226,5.676,42.883,5.676,42.883s17.346,5.049,54.555,5.049c37.211,0,54.554-5.049,54.554-5.049
				s5.676-17.657,5.676-42.883C958.682,259.877,953.006,240.956,953.006,240.956z"/>
			<polygon fill="#F1F1F1" points="881.134,258.742 925.701,284.474 881.134,310.202 			"/>
		</g>
		<g>
			<path fill="#A32126" d="M838.233,284.474c-0.003,0.21-0.012,0.416-0.012,0.63c0,25.226,5.676,42.883,5.676,42.883
				s17.346,5.049,54.555,5.049c37.211,0,54.554-5.049,54.554-5.049s5.676-17.657,5.676-42.883c0-0.214-0.008-0.42-0.008-0.63
				H838.233z"/>
			<polygon fill="#D4D4D4" points="881.134,284.474 881.134,310.202 925.701,284.474 925.7,284.474 			"/>
		</g>
	</g>
	<g>
		<g>
			<g>
				<g>
					<g>
						<path fill="#DED11D" d="M459.94,553.915c1.739-5.524,2.092-11.562,0.66-17.611c-4.234-17.879-22.158-28.944-40.04-24.712
							c-17.882,4.234-28.94,22.162-24.706,40.045c1.43,6.041,4.448,11.285,8.482,15.443l-0.124,0.029
							c18.15,17.432,19.006,27.188,19.006,27.188l16.021-3.792l16.028-3.795c0,0-3.618-9.103,4.789-32.822L459.94,553.915z"/>
					</g>
					<g>
						<path fill="#00384C" d="M413.879,554.841c1.286-0.892,2.615-1.708,3.927-2.553l0.122-0.076l0.196,0.06
							c0.957,0.282,1.894,0.611,2.832,0.929l-0.662,0.231l1.929-3.7l0.313-0.602l0.664,0.326c1.869,0.924,3.696,1.923,5.542,2.88
							l-1.126,0.301c1.261-2.136,2.533-4.263,3.889-6.335l0.639-0.977l0.74,0.855l3.057,3.545l-1.333,0.241l0.67-1.673l0.326-0.803
							l0.721,0.391l2.067,1.127l-0.879,0.309l1.793-3.427l0.189-0.355l0.339,0.089c2.035,0.518,4.074,1.028,6.092,1.627
							c-2.098-0.168-4.184-0.429-6.269-0.682l0.523-0.268l-1.478,3.573l-0.246,0.588l-0.637-0.276l-2.161-0.935l1.045-0.412
							l-0.614,1.692l-0.441,1.218l-0.893-0.971l-3.16-3.451l1.377-0.119c-1.245,2.14-2.573,4.232-3.914,6.315l-0.444,0.689
							l-0.683-0.388c-1.806-1.033-3.637-2.022-5.424-3.091l0.974-0.272l-2.251,3.512l-0.265,0.414l-0.402-0.18
							c-0.905-0.402-1.818-0.794-2.713-1.235l0.315-0.017C416.738,553.588,415.33,554.251,413.879,554.841z"/>
					</g>
					<g>
						
							<rect x="401.073" y="574.349" transform="matrix(0.4233 0.906 -0.906 0.4233 765.0159 -51.9)" fill="#001720" width="44.403" height="1.212"/>
					</g>
					<g>
						<path fill="#001720" d="M416.357,554.254c0.327,1.371-0.521,2.745-1.89,3.071c-1.375,0.324-2.75-0.525-3.074-1.896
							c-0.326-1.371,0.521-2.745,1.896-3.068C414.659,552.035,416.034,552.883,416.357,554.254z"/>
					</g>
					<g>
						
							<rect x="445.941" y="547.242" transform="matrix(0.9996 -0.0274 0.0274 0.9996 -15.4402 12.4534)" fill="#001720" width="1.211" height="44.403"/>
					</g>
					<g>
						<circle fill="#001720" cx="445.928" cy="547.252" r="2.551"/>
					</g>
					<g>
						<g>
							<polygon fill="#00384C" points="439.241,590.506 423.22,594.298 425.179,602.574 429.97,607.679 442.601,604.688 
								455.231,601.699 457.229,594.987 455.27,586.711 							"/>
						</g>
						<g>
							<g>
								<path fill="#001720" d="M457.647,589.157c0.179,0.758-0.254,1.517-0.984,1.687l-32.844,7.776
									c-0.719,0.171-1.45-0.309-1.629-1.07l0,0c-0.181-0.762,0.257-1.518,0.978-1.69l32.842-7.773
									C456.736,587.911,457.466,588.393,457.647,589.157L457.647,589.157z"/>
							</g>
							<g>
								<path fill="#001720" d="M458.934,594.587c0.178,0.761-0.256,1.518-0.986,1.689l-32.842,7.776
									c-0.721,0.171-1.451-0.312-1.631-1.07l0,0c-0.181-0.767,0.259-1.52,0.975-1.69l32.847-7.775
									C458.023,593.343,458.75,593.82,458.934,594.587L458.934,594.587z"/>
							</g>
							<g>
								<path fill="#001720" d="M457.178,601.238c0.147,0.626-0.218,1.248-0.807,1.387l-26.997,6.394
									c-0.597,0.141-1.194-0.253-1.342-0.882l0,0c-0.151-0.627,0.211-1.245,0.803-1.387l26.998-6.391
									C456.423,600.221,457.031,600.609,457.178,601.238L457.178,601.238z"/>
							</g>
						</g>
					</g>
				</g>
			</g>
			<g>
				<g>
					<g>
						<path fill="#FBED21" d="M439.031,590.554l-18.681-78.898c-17.753,4.325-28.713,22.171-24.495,39.981
							c1.43,6.041,4.448,11.285,8.482,15.443l-0.124,0.029c18.15,17.432,19.006,27.188,19.006,27.188L439.031,590.554z"/>
					</g>
					<g>
						<path fill="#004D69" d="M429.375,549.772c-0.443,0.733-0.911,1.454-1.345,2.194c-1.608-0.843-3.202-1.705-4.83-2.511
							l-0.664-0.326l-0.313,0.602l-1.73,3.318c-0.787-0.27-1.568-0.543-2.369-0.778l-0.196-0.06l-0.122,0.076
							c-1.312,0.845-2.641,1.661-3.927,2.553c1.385-0.564,2.737-1.199,4.104-1.804c0.853,0.411,1.715,0.788,2.579,1.172l0.402,0.18
							l0.265-0.414l1.863-2.905c1.602,0.938,3.229,1.835,4.839,2.757l0.683,0.388l0.444-0.689c0.298-0.463,0.578-0.94,0.875-1.406
							L429.375,549.772z"/>
					</g>
					<g>
						
							<rect x="401.073" y="574.349" transform="matrix(0.4233 0.906 -0.906 0.4233 765.0159 -51.9)" fill="#002D3D" width="44.403" height="1.212"/>
					</g>
					<g>
						<path fill="#002D3D" d="M416.357,554.254c0.327,1.371-0.521,2.745-1.89,3.071c-1.375,0.324-2.75-0.525-3.074-1.896
							c-0.326-1.371,0.521-2.745,1.896-3.068C414.659,552.035,416.034,552.883,416.357,554.254z"/>
					</g>
					<g>
						<g>
							<polygon fill="#004D69" points="439.031,590.554 423.22,594.298 425.179,602.574 429.97,607.679 442.388,604.74 							"/>
						</g>
						<g>
							<g>
								<path fill="#002D3D" d="M439.378,592.021l-16.21,3.838c-0.721,0.173-1.159,0.929-0.978,1.69
									c0.179,0.762,0.911,1.241,1.629,1.07l16.213-3.837L439.378,592.021z"/>
							</g>
							<g>
								<path fill="#002D3D" d="M440.665,597.453l-16.216,3.839c-0.716,0.171-1.156,0.924-0.975,1.69
									c0.181,0.759,0.91,1.241,1.631,1.07l16.211-3.838L440.665,597.453z"/>
							</g>
							<g>
								<path fill="#002D3D" d="M442.122,603.605l-13.287,3.145c-0.592,0.142-0.954,0.76-0.803,1.387
									c0.147,0.629,0.745,1.022,1.342,0.882l13.284-3.146L442.122,603.605z"/>
							</g>
						</g>
					</g>
				</g>
			</g>
		</g>
		
			<rect x="416.299" y="499.303" transform="matrix(0.9731 -0.2304 0.2304 0.9731 -104.739 109.9357)" fill="#F1F1F1" width="4.248" height="8.404"/>
		
			<rect x="427.687" y="498.141" transform="matrix(0.9996 0.0292 -0.0292 0.9996 14.8499 -12.3348)" fill="#F1F1F1" width="4.248" height="8.407"/>
		<polygon fill="#F1F1F1" points="441.941,508.809 437.875,507.585 440.286,499.535 444.356,500.752 		"/>
		
			<rect x="449.434" y="504.659" transform="matrix(0.8508 0.5255 -0.5255 0.8508 334.7871 -161.3694)" fill="#F1F1F1" width="4.248" height="8.401"/>
		
			<rect x="458.311" y="511.889" transform="matrix(0.6859 0.7277 -0.7277 0.6859 520.1472 -172.9548)" fill="#F1F1F1" width="4.248" height="8.404"/>
		
			<rect x="465.011" y="521.176" transform="matrix(0.4739 0.8806 -0.8806 0.4739 708.4304 -134.9362)" fill="#F1F1F1" width="4.25" height="8.401"/>
		
			<rect x="469.08" y="531.875" transform="matrix(0.2303 0.9731 -0.9731 0.2303 884.3594 -45.9141)" fill="#F1F1F1" width="4.247" height="8.404"/>
		
			<rect x="470.244" y="543.264" transform="matrix(-0.0286 0.9996 -0.9996 -0.0286 1033.1361 90.9699)" fill="#F1F1F1" width="4.246" height="8.405"/>
		<polygon fill="#F1F1F1" points="465.903,559.596 467.126,555.53 475.173,557.942 473.957,562.009 		"/>
		<polygon fill="#F1F1F1" points="461.158,568.812 463.392,565.203 470.541,569.615 468.312,573.227 		"/>
		
			<rect x="405.599" y="503.371" transform="matrix(-0.8804 0.4742 -0.4742 -0.8804 1007.3892 761.0845)" fill="#F1F1F1" width="4.246" height="8.406"/>
		
			<rect x="396.314" y="510.072" transform="matrix(-0.7272 0.6865 -0.6865 -0.7272 1041.2004 614.7128)" fill="#F1F1F1" width="4.249" height="8.406"/>
		
			<rect x="389.083" y="518.946" transform="matrix(-0.525 0.8511 -0.8511 -0.525 1041.8435 464.8653)" fill="#F1F1F1" width="4.245" height="8.404"/>
		
			<rect x="384.389" y="529.391" transform="matrix(-0.2869 0.9579 -0.9579 -0.2869 1008.5767 316.4468)" fill="#F1F1F1" width="4.249" height="8.405"/>
		<polygon fill="#F1F1F1" points="388.828,547.142 388.946,542.895 380.55,542.651 380.424,546.896 		"/>
		
			<rect x="383.724" y="552.084" transform="matrix(0.2312 0.9729 -0.9729 0.2312 837.8769 52.3007)" fill="#F1F1F1" width="4.246" height="8.402"/>
		
			<rect x="387.794" y="562.786" transform="matrix(0.4746 0.8802 -0.8802 0.4746 703.9294 -45.3088)" fill="#F1F1F1" width="4.247" height="8.401"/>
		
			<rect x="394.496" y="572.069" transform="matrix(0.6867 0.7269 -0.7269 0.6867 543.1383 -107.7798)" fill="#F1F1F1" width="4.243" height="8.403"/>
		
			<rect x="403.371" y="579.301" transform="matrix(0.8516 0.5243 -0.5243 0.8516 366.1025 -125.967)" fill="#F1F1F1" width="4.241" height="8.403"/>
	</g>
	<g>
		
			<rect x="332.569" y="314.334" transform="matrix(0.9932 0.1167 -0.1167 0.9932 40.2236 -38.5909)" fill="#F05A24" width="34.448" height="20.002"/>
		
			<rect x="334.127" y="316.673" transform="matrix(0.9932 0.1167 -0.1167 0.9932 40.3854 -38.5894)" fill="#FAAF3B" width="31.055" height="17.656"/>
		<path fill="#F05A24" d="M398.264,347.021c-0.2,1.713-1.753,2.938-3.467,2.742l-7.77-0.917c-1.709-0.202-2.939-1.75-2.737-3.466
			l0.494-4.232c0.207-1.716,1.757-2.936,3.469-2.739l7.77,0.915c1.714,0.199,2.939,1.755,2.737,3.468L398.264,347.021z"/>
		<path fill="#FAAF3B" d="M399.975,405.084c-0.197,1.713-1.751,2.938-3.464,2.737l-109.958-12.915
			c-1.711-0.197-2.937-1.752-2.737-3.466l6.584-56.087c0.206-1.715,1.753-2.938,3.468-2.739l109.958,12.915
			c1.716,0.202,2.941,1.753,2.742,3.465L399.975,405.084z"/>
		
			<rect x="286.383" y="351.723" transform="matrix(0.9932 0.1166 -0.1166 0.9932 45.8608 -37.6793)" fill="#F05A24" width="116.962" height="42.548"/>
		<path fill="#F05A24" d="M376.168,373.857c-2.018,17.198-17.601,29.507-34.806,27.488c-17.197-2.019-29.505-17.605-27.487-34.807
			c2.02-17.2,17.603-29.507,34.803-27.488C365.88,341.072,378.189,356.655,376.168,373.857z"/>
		<path fill="#FAAF3B" d="M372.801,373.459c-1.8,15.34-15.7,26.316-31.042,24.517c-15.341-1.799-26.316-15.701-24.517-31.042
			c1.804-15.342,15.704-26.317,31.042-24.518C363.628,344.221,374.604,358.12,372.801,373.459z"/>
		<path fill="#4D4D4D" d="M368.928,373.007c-1.551,13.202-13.508,22.648-26.711,21.096c-13.207-1.551-22.65-13.509-21.103-26.711
			c1.556-13.203,13.515-22.65,26.715-21.101C361.032,347.841,370.479,359.805,368.928,373.007z"/>
		<path fill="#323232" d="M363.374,372.351c-1.192,10.136-10.373,17.388-20.508,16.195c-10.133-1.191-17.384-10.371-16.194-20.504
			c1.188-10.131,10.371-17.384,20.503-16.193C357.311,353.038,364.562,362.218,363.374,372.351z"/>
		<path fill="#B1B1B1" d="M351.757,370.989c-0.437,3.715-3.806,6.378-7.526,5.943c-3.716-0.434-6.38-3.807-5.943-7.525
			c0.435-3.722,3.807-6.379,7.526-5.944C349.532,363.903,352.19,367.27,351.757,370.989z"/>
		<path fill="#B1B1B1" d="M342.465,359.996c-0.193,1.674-1.713,2.875-3.387,2.676c-1.667-0.195-2.87-1.713-2.674-3.387
			c0.197-1.673,1.713-2.871,3.386-2.674C341.464,356.81,342.662,358.322,342.465,359.996z"/>
		
			<rect x="337.755" y="318.402" transform="matrix(0.9932 0.1166 -0.1166 0.9932 40.2201 -38.5875)" fill="#323232" width="24.07" height="11.866"/>
		<polygon fill="#FAAF3B" points="365.733,336.277 331.52,332.258 323.578,336.106 372.569,341.858 		"/>
		<path fill="#B1B1B1" d="M360.389,322.96c-0.147,1.234-1.261,2.116-2.5,1.975c-1.229-0.148-2.113-1.266-1.968-2.498
			c0.145-1.234,1.264-2.117,2.496-1.97C359.649,320.607,360.532,321.729,360.389,322.96z"/>
		<circle fill="#B1B1B1" cx="356.959" cy="326.676" r="1.211"/>
		<path fill="#F05A24" d="M311.851,340.104c-0.126,1.07-1.095,1.831-2.163,1.709l-11.253-1.323
			c-1.072-0.125-1.833-1.093-1.707-2.166l0,0c0.122-1.068,1.093-1.833,2.161-1.706l11.256,1.32
			C311.208,338.065,311.978,339.032,311.851,340.104L311.851,340.104z"/>
	</g>
	<g>
		<polygon fill="#FFD8AD" points="551.197,683.87 561.474,683.87 561.474,661.148 551.197,661.148 551.197,661.136 531.609,672.509 
			551.197,683.875 		"/>
		<g>
			<path fill="#FF7BAB" d="M718.469,683.29c-3.871-0.002-7.011-4.827-7.014-10.789l0,0c0.003-5.945,3.14-10.769,7.012-10.764h7.098
				c3.868,0,7.005,4.818,7.005,10.766l0,0c0.003,5.954-3.137,10.785-7.005,10.785L718.469,683.29z"/>
			<path fill="#333333" d="M551.194,667.642c1.705-3.766,0.002-6.493,0.002-6.493l162.059,0.002l0.001,6.494L551.194,667.642z"/>
			<path fill="#333333" d="M551.197,683.87c0,0,2.741-2.861,0-6.496h162.059v6.496H551.197z"/>
			<path fill="#FBED21" d="M551.197,677.374c4.646-5.251-0.002-9.732-0.002-9.732l162.062,0.003l-0.001,9.729H551.197z"/>
			<rect x="714.405" y="661.511" fill="#E5E5E5" width="6.728" height="22.357"/>
			<path fill="#CBCBCB" d="M714.405,685.451c-0.638-0.005-1.148-0.784-1.148-1.766v-22.343c-0.001-0.984,0.511-1.776,1.15-1.771l0,0
				c0.632,0,1.147,0.781,1.147,1.771v22.343C715.555,684.667,715.039,685.446,714.405,685.451L714.405,685.451z"/>
			<path fill="#CBCBCB" d="M722.014,685.446c-0.633,0.005-1.148-0.786-1.148-1.766v-22.345c0-0.973,0.516-1.768,1.148-1.768l0,0
				c0.632,0,1.153,0.79,1.153,1.77v22.339C723.164,684.66,722.646,685.451,722.014,685.446L722.014,685.446z"/>
		</g>
		<polygon fill="#333333" points="536.968,675.616 531.609,672.509 536.795,669.501 		"/>
	</g>
	<g>
		<g>
			<circle fill="#F1F1F1" cx="417" cy="230.697" r="38.738"/>
			<g>
				<path fill="#C59B6D" d="M406.439,229.373l2.24-1.875c0,0-5.449,5.55-7.337,11.821l1.043-0.082l-0.198,1.501l0.773-0.706
					l0.07,1.633l1.351,0.01l-0.109,1.352l1.619,0.221l-0.778,0.707l1.512-0.059l-0.175,1.035c6.412-1.304,12.452-6.205,12.452-6.205
					l-2.079,2.052c7.518-4.341,11.987-13.272,11.987-13.272l-3.565-4.827l-4.461-3.995
					C420.783,218.685,411.471,222.288,406.439,229.373z"/>
				<path fill="#F05A24" d="M488.109,165.03c0,0-3.381-0.734-5.49-0.078c-2.114,0.649-35.135,23.51-47.511,36.683
					c-12.374,13.171-5.42,16.999-5.42,16.999s3.166,7.291,17.438-3.801c14.273-11.091,39.706-42.281,40.547-44.329
					C488.523,168.463,488.109,165.03,488.109,165.03z"/>
				<path fill="#1B1464" d="M436.197,196.535c0.479-0.439,1.493-0.105,2.262,0.74l13.32,14.632c0.771,0.847,1.007,1.888,0.53,2.323
					l0,0c-0.484,0.436-1.495,0.103-2.266-0.74l-13.32-14.634C435.954,198.011,435.716,196.968,436.197,196.535L436.197,196.535z"/>
				<polygon fill="#2E3191" points="419.974,216.89 425.244,222.679 430.521,228.473 450.043,213.49 443.378,206.172 
					436.723,198.856 				"/>
				<path fill="#1B1464" d="M418.715,215.502c0.319-0.288,0.994-0.067,1.509,0.496l11.209,12.311
					c0.511,0.565,0.664,1.255,0.347,1.549l0,0c-0.317,0.294-0.99,0.07-1.507-0.494l-11.207-12.315
					C418.551,216.485,418.395,215.796,418.715,215.502L418.715,215.502z"/>
			</g>
		</g>
		<g>
			<path fill="#FFBB00" d="M421.612,169.996c0,28.196-22.858,51.054-51.057,51.054c-28.191,0-51.052-22.858-51.052-51.054
				c0-28.196,22.86-51.052,51.052-51.052C398.753,118.944,421.612,141.8,421.612,169.996z"/>
			<path fill="#FAAF3B" d="M403.439,146.49l-63.417,48.872l30.059,25.665c0.16,0,0.315,0.023,0.475,0.023
				c26.641,0,48.488-20.411,50.825-46.441L403.439,146.49z"/>
			<g>
				<path fill="#F9FCF8" d="M404.516,190.426c0,2.725-2.211,4.937-4.94,4.937H341.54c-2.727,0-4.938-2.212-4.938-4.937v-40.86
					c0-2.729,2.211-4.941,4.938-4.941h58.036c2.729,0,4.94,2.212,4.94,4.941V190.426z"/>
				<path fill="#B3E6DE" d="M404.512,149.558c-0.004-2.725-2.212-4.933-4.936-4.933H341.54c-2.724,0-4.932,2.208-4.938,4.933
					H404.512z"/>
				<rect x="340.896" y="145.899" fill="#F1F1F1" width="8.59" height="2.544"/>
				<rect x="351.71" y="145.899" fill="#F1F1F1" width="48.353" height="2.544"/>
				<rect x="340.896" y="152.74" fill="#FF600E" width="29.659" height="37.532"/>
				<rect x="373.343" y="152.74" fill="#FF8A57" width="14.312" height="2.355"/>
				<rect x="373.343" y="157.134" fill="#B3E6DE" width="26.083" height="2.356"/>
				<rect x="373.343" y="161.532" fill="#B3E6DE" width="26.083" height="2.356"/>
				<rect x="373.343" y="165.93" fill="#B3E6DE" width="26.083" height="2.355"/>
				<rect x="373.343" y="174.726" fill="#FF8A57" width="14.312" height="2.357"/>
				<rect x="373.343" y="179.122" fill="#B3E6DE" width="26.083" height="2.356"/>
				<rect x="373.343" y="183.522" fill="#B3E6DE" width="26.083" height="2.355"/>
				<rect x="373.343" y="187.916" fill="#B3E6DE" width="26.083" height="2.356"/>
			</g>
		</g>
	</g>
</g>
</svg>
