<?xml version="1.0" encoding="utf-8"?>
<!-- Generator: Adobe Illustrator 16.0.0, SVG Export Plug-In . SVG Version: 6.00 Build 0)  -->
<!DOCTYPE svg PUBLIC "-//W3C//DTD SVG 1.1//EN" "http://www.w3.org/Graphics/SVG/1.1/DTD/svg11.dtd">
<svg version="1.1" id="Layer_1" xmlns="http://www.w3.org/2000/svg" xmlns:xlink="http://www.w3.org/1999/xlink" x="0px" y="0px"
	 width="1280px" height="800px" viewBox="0 0 1280 800" enable-background="new 0 0 1280 800" xml:space="preserve">
<rect x="-0.5" y="0.5" fill="#EFC67D" stroke="#000000" stroke-miterlimit="10" width="1280" height="800"/>
<path fill="#CBCBCB" d="M564.341,133.134c-6.472,0-12.621,1.36-18.2,3.779c-5.292-24.014-26.664-41.988-52.259-41.988
	c-28.354,0-51.5,22.054-53.367,49.933c-20.389,2.186-36.27,19.433-36.27,40.406c0,22.451,18.2,40.649,40.651,40.649
	c3.365,0,6.621-0.455,9.75-1.224h109.694c25.281,0,45.776-20.498,45.776-45.783C610.117,153.623,589.622,133.134,564.341,133.134z"
	/>
<path fill="#00658C" d="M406.312,287.412l11.708-2.84v-13.44l-11.708-2.84c-0.803-2.965-1.99-5.837-3.554-8.563l6.281-10.293
	l-9.509-9.509l-10.296,6.28c-2.722-1.562-5.593-2.751-8.559-3.549l-2.842-11.715H364.39l-2.838,11.71
	c-2.967,0.803-5.836,1.992-8.563,3.554l-10.293-6.275l-9.507,9.505l6.276,10.293c-1.56,2.727-2.751,5.598-3.552,8.563l-11.71,2.84
	v13.44l11.71,2.847c0.801,2.961,1.992,5.833,3.552,8.559l-6.276,10.294l9.507,9.51l10.293-6.281
	c2.727,1.562,5.596,2.751,8.563,3.554l2.838,11.71h13.443l2.842-11.71c2.965-0.803,5.837-1.992,8.559-3.554l10.296,6.273
	l9.505-9.502l-6.276-10.294C404.322,293.251,405.509,290.38,406.312,287.412z M371.113,295.043c-9.493,0-17.19-7.694-17.19-17.188
	c0-9.498,7.697-17.192,17.19-17.192s17.188,7.694,17.188,17.192C388.302,287.349,380.606,295.043,371.113,295.043z"/>
<g>
	<path fill="#006585" d="M809.144,127.688l-37.755,21.742l13.074,22.708c-3.721,3.916-7.021,8.147-9.79,12.67l-25.272-6.806
		l-11.318,42.07l25.268,6.799c0.123,5.31,0.846,10.619,2.104,15.883l-22.719,13.074l21.741,37.756l22.711-13.07
		c3.92,3.718,8.152,7.012,12.674,9.783l-6.805,25.275l42.066,11.327l6.805-25.271c5.302-0.126,10.617-0.846,15.88-2.102
		l13.074,22.709l37.755-21.732l-13.074-22.715c3.724-3.916,7.013-8.147,9.795-12.677l25.262,6.812l11.332-42.074l-25.27-6.806
		c-0.129-5.302-0.852-10.612-2.107-15.872l22.711-13.081l-21.736-37.754l-22.711,13.074c-3.917-3.724-8.147-7.012-12.671-9.791
		l6.799-25.265l-42.068-11.329l-6.8,25.265c-5.312,0.132-10.617,0.853-15.875,2.103L809.144,127.688z M887.132,197.835
		c14.979,26.024,6.027,59.267-19.992,74.247c-26.023,14.982-59.268,6.035-74.246-19.988c-14.986-26.024-6.029-59.267,19.992-74.247
		C838.904,162.864,872.147,171.816,887.132,197.835z"/>
	<g>
		<path fill="#007DAA" d="M896.391,192.51c17.895,31.081,7.165,70.935-23.922,88.83c-31.085,17.897-70.944,7.171-88.839-23.914
			c-17.895-31.087-7.162-70.934,23.927-88.835C838.644,150.697,878.49,161.422,896.391,192.51z M802.158,246.763
			c12.015,20.869,38.771,28.077,59.651,16.062c20.877-12.026,28.081-38.782,16.061-59.656
			c-12.018-20.878-38.777-28.082-59.651-16.062C797.339,199.129,790.135,225.885,802.158,246.763z"/>
	</g>
</g>
<g>
	<path fill="#006585" d="M295.729,385.168l-29.523,29.523l19.491,31.973c-4.844,8.465-8.543,17.388-11.03,26.593l-36.368,8.82
		l-0.006,41.751l36.375,8.826c2.487,9.196,6.187,18.125,11.03,26.581l-19.491,31.975l29.527,29.533l31.97-19.499
		c8.468,4.85,17.383,8.54,26.594,11.033l8.813,36.367h41.752l8.827-36.367c9.204-2.485,18.129-6.184,26.589-11.033l31.974,19.487
		l29.521-29.521l-19.492-31.975c4.852-8.465,8.54-17.379,11.032-26.587l36.375-8.82l-0.008-41.751l-36.362-8.82
		c-2.492-9.214-6.185-18.134-11.032-26.593l19.494-31.973l-29.526-29.535l-31.974,19.503c-8.46-4.845-17.385-8.543-26.589-11.025
		l-8.827-36.378h-41.748l-8.818,36.368c-9.211,2.493-18.126,6.191-26.594,11.036L295.729,385.168z M413.031,473.904
		c16.044,16.047,16.049,42.054,0.007,58.09c-16.042,16.038-42.049,16.038-58.094,0c-16.037-16.036-16.037-42.049,0-58.09
		C370.989,457.871,396.989,457.871,413.031,473.904z"/>
	<g>
		<path fill="none" d="M359.944,527.002c13.261,13.255,34.837,13.255,48.098,0c13.257-13.261,13.257-34.844-0.004-48.101
			c-13.261-13.266-34.835-13.249-48.094,0C346.686,492.158,346.686,513.735,359.944,527.002z"/>
		<path fill="#007DAA" d="M351.688,535.254c17.811,17.809,46.793,17.809,64.604,0c17.808-17.804,17.808-46.793,0-64.604
			c-17.811-17.811-46.793-17.805-64.599,0C333.885,488.461,333.877,517.45,351.688,535.254z M408.038,478.901
			c13.261,13.257,13.261,34.84,0.004,48.101c-13.26,13.255-34.836,13.255-48.098,0c-13.259-13.267-13.259-34.844,0-48.101
			C373.203,465.652,394.777,465.636,408.038,478.901z"/>
		<path fill="#007DAB" d="M330.623,556.319c29.428,29.432,77.317,29.42,106.738,0c29.426-29.434,29.426-77.309-0.004-106.74
			c-29.424-29.419-77.306-29.427-106.734-0.005C301.2,479.007,301.196,526.898,330.623,556.319z M426.285,460.661
			c23.32,23.316,23.32,61.254-0.007,84.582c-23.325,23.319-61.256,23.319-84.582,0c-23.327-23.328-23.327-61.262,0-84.582
			C365.022,437.334,402.963,437.33,426.285,460.661z"/>
		<path fill="#00658C" d="M341.697,545.243c23.325,23.319,61.257,23.319,84.582,0c23.327-23.328,23.327-61.266,0.007-84.582
			c-23.322-23.331-61.263-23.327-84.588,0C318.37,483.981,318.37,521.915,341.697,545.243z M416.292,470.65
			c17.808,17.811,17.808,46.8,0,64.604c-17.811,17.809-46.793,17.809-64.604,0c-17.811-17.804-17.803-46.793,0.005-64.604
			C369.499,452.846,398.481,452.84,416.292,470.65z"/>
	</g>
</g>
<g>
	<path fill="#007DAB" d="M721.167,337.516L675.44,383.24l17.42,29.148c-6.403,11.229-11.264,23.091-14.602,35.284l-32.939,8.291
		v64.669l32.939,8.287c3.338,12.198,8.198,24.056,14.602,35.29l-17.42,29.138l45.727,45.729l29.135-17.422
		c11.227,6.395,23.089,11.267,35.288,14.604l8.292,32.938h64.664l8.292-32.932c12.199-3.343,24.059-8.203,35.296-14.609
		l29.135,17.422l45.727-45.729l-17.422-29.138c6.4-11.234,11.266-23.092,14.607-35.29l32.935-8.291v-64.665l-32.939-8.291
		c-3.34-12.193-8.205-24.062-14.603-35.292l17.422-29.136l-45.732-45.729l-29.134,17.428c-11.232-6.412-23.098-11.266-35.291-14.616
		l-8.292-32.921h-64.664l-8.292,32.927c-12.191,3.343-24.051,8.203-35.288,14.609L721.167,337.516z M855.451,459.067
		c16.15,16.142,16.15,42.313,0,58.464c-16.143,16.149-42.324,16.149-58.467,0c-16.145-16.144-16.145-42.322,0-58.464
		C813.132,442.916,839.309,442.916,855.451,459.067z"/>
	<g>
		<path fill="#96B3C6" d="M880.8,433.714c30.096,30.093,30.106,79.066,0,109.164c-30.094,30.099-79.073,30.103-109.169,0
			c-30.104-30.092-30.097-79.071,0.003-109.168C801.729,403.611,850.698,403.611,880.8,433.714z M790.949,523.566
			c19.445,19.447,51.097,19.447,70.542,0.004c19.445-19.451,19.445-51.101-0.005-70.55c-19.445-19.442-51.084-19.438-70.537,0.006
			C771.497,472.474,771.497,504.119,790.949,523.566z"/>
	</g>
	<g>
		<path fill="#00658C" d="M857.062,457.45c17.007,17.006,17.004,44.685,0,61.687c-17.01,17.014-44.681,17.014-61.688,0
			c-17.007-17.002-17.01-44.681,0-61.687C812.381,440.442,840.052,440.442,857.062,457.45z M798.59,515.92
			c15.236,15.231,40.02,15.228,55.251,0c15.23-15.232,15.23-40.021,0-55.247c-15.229-15.231-40.015-15.231-55.243,0
			C783.359,475.898,783.359,500.694,798.59,515.92z"/>
	</g>
	<g>
		<path fill="#006690" d="M891.669,422.846c36.087,36.089,36.087,94.815,0,130.895c-36.089,36.09-94.813,36.09-130.902,0
			c-36.087-36.084-36.087-94.806,0.003-130.895C796.855,386.762,855.58,386.762,891.669,422.846z M767.203,547.308
			c32.54,32.538,85.483,32.545,118.026,0c32.534-32.533,32.54-85.489,0-118.027c-32.537-32.54-85.486-32.54-118.026,0
			C734.664,461.825,734.666,514.767,767.203,547.308z"/>
	</g>
</g>
<g>
	<path fill="#007DAB" d="M434.605,154.94l-21.238,21.235l8.09,13.539c-2.972,5.216-5.229,10.721-6.78,16.385l-15.296,3.85v30.037
		l15.296,3.845c1.551,5.671,3.808,11.176,6.78,16.396l-8.09,13.527l21.238,21.24l13.529-8.092
		c5.216,2.969,10.726,5.231,16.392,6.782l3.849,15.295h30.033l3.852-15.295c5.666-1.551,11.174-3.807,16.389-6.782l13.534,8.092
		l21.236-21.24l-8.092-13.527c2.974-5.221,5.233-10.726,6.785-16.396l15.294-3.849v-30.033l-15.299-3.85
		c-1.55-5.664-3.806-11.174-6.78-16.39l8.092-13.529l-21.24-21.24l-13.53,8.095c-5.215-2.977-10.727-5.232-16.389-6.79
		l-3.852-15.287h-30.033l-3.849,15.294c-5.664,1.551-11.172,3.806-16.392,6.783L434.605,154.94z M496.969,211.39
		c7.501,7.499,7.501,19.656,0,27.153c-7.496,7.5-19.654,7.5-27.151,0c-7.501-7.497-7.501-19.655,0-27.153
		C477.316,203.891,489.473,203.891,496.969,211.39z"/>
	<g>
		<path fill="#96B3C6" d="M508.746,199.616c13.975,13.981,13.976,36.722,0,50.697c-13.98,13.981-36.728,13.981-50.702,0
			c-13.982-13.975-13.979-36.715,0-50.697C472.023,185.634,494.763,185.634,508.746,199.616z M467.014,241.347
			c9.029,9.031,23.729,9.031,32.758,0.004c9.034-9.038,9.034-23.736,0-32.768c-9.031-9.03-23.725-9.03-32.758,0.004
			C457.98,217.622,457.98,232.313,467.014,241.347z"/>
	</g>
	<g>
		<path fill="#00658C" d="M497.718,210.642c7.899,7.896,7.899,20.752,0,28.65c-7.898,7.899-20.751,7.899-28.65,0
			c-7.897-7.897-7.897-20.754,0-28.65C476.967,202.745,489.82,202.745,497.718,210.642z M470.564,237.795
			c7.075,7.074,18.586,7.074,25.657,0c7.076-7.071,7.076-18.584,0-25.658c-7.071-7.078-18.582-7.078-25.653,0
			C463.487,219.211,463.487,230.724,470.564,237.795z"/>
	</g>
	<g>
		<path fill="#006690" d="M513.791,194.568c16.758,16.763,16.758,44.037,0,60.793c-16.76,16.76-44.032,16.76-60.794,0
			c-16.759-16.756-16.759-44.03,0.004-60.793C469.759,177.812,497.03,177.812,513.791,194.568z M455.988,252.373
			c15.112,15.113,39.696,15.113,54.812,0c15.107-15.112,15.113-39.698,0-54.817c-15.111-15.112-39.701-15.112-54.812,0
			C440.876,212.674,440.876,237.261,455.988,252.373z"/>
	</g>
</g>
<g>
	<g>
		<rect x="530.624" y="583.788" fill="#CBCBCB" width="183.015" height="60.322"/>
		<rect x="507.154" y="629.91" fill="#F1F1F1" width="229.954" height="14.2"/>
		<path fill="#F1F1F1" d="M860.272,580.282c0,7.838-6.358,14.195-14.193,14.195H398.188c-7.842,0-14.197-6.357-14.197-14.195
			V261.396c0-7.838,6.355-14.189,14.197-14.189h447.892c7.835,0,14.193,6.351,14.193,14.189V580.282z"/>
		<path d="M860.272,549.475V261.396c0-7.838-6.358-14.189-14.193-14.189H398.188c-7.842,0-14.197,6.351-14.197,14.189v288.079
			H860.272z"/>
		<rect x="404.245" y="267.458" fill="#00445C" width="435.772" height="270.013"/>
		<rect x="404.245" y="267.458" fill="#CBCBCB" width="435.772" height="22.502"/>
		<rect x="459.992" y="273.503" fill="#F1F1F1" width="324.276" height="10.41"/>
		<path fill="#FF1D25" d="M419.116,278.708c0,2.872-2.333,5.205-5.209,5.205c-2.872,0-5.2-2.333-5.2-5.205
			c0-2.875,2.329-5.205,5.2-5.205C416.783,273.503,419.116,275.833,419.116,278.708z"/>
		<path fill="#FBED21" d="M433.98,278.708c0,2.872-2.331,5.205-5.208,5.205c-2.872,0-5.202-2.333-5.202-5.205
			c0-2.875,2.331-5.205,5.202-5.205C431.649,273.503,433.98,275.833,433.98,278.708z"/>
		<path fill="#8BC53F" d="M448.84,278.708c0,2.872-2.331,5.205-5.198,5.205c-2.875,0-5.208-2.333-5.208-5.205
			c0-2.875,2.333-5.205,5.208-5.205C446.509,273.503,448.84,275.833,448.84,278.708z"/>
		<rect x="789.528" y="273.503" fill="#808080" width="24.382" height="1.322"/>
		<rect x="789.528" y="276.527" fill="#808080" width="24.382" height="1.328"/>
		<rect x="789.528" y="279.559" fill="#808080" width="24.382" height="1.327"/>
		<rect x="789.528" y="282.59" fill="#808080" width="24.382" height="1.323"/>
		<rect x="819.454" y="273.503" fill="#808080" width="13.53" height="10.41"/>
		<path d="M633.232,574.028c0,6.136-4.974,11.104-11.104,11.104c-6.128,0-11.098-4.968-11.098-11.104
			c0-6.127,4.97-11.091,11.098-11.091C628.259,562.938,633.232,567.901,633.232,574.028z"/>
	</g>
	<rect x="443.939" y="289.959" fill="#F1F1F1" width="356.385" height="247.511"/>
	<g>
		<g>
			<rect x="688.136" y="314.78" fill="#FF8756" width="96.5" height="57.471"/>
			<rect x="459.622" y="314.78" fill="#9ED9A5" width="210.756" height="57.471"/>
		</g>
		<g>
			<rect x="459.622" y="437.346" fill="#FACC5D" width="324.644" height="57.471"/>
		</g>
		<g>
			<rect x="688.136" y="379.509" fill="#4D4D4D" width="96.5" height="2.737"/>
			<rect x="688.136" y="386.739" fill="#4D4D4D" width="96.5" height="2.737"/>
			<rect x="688.136" y="393.966" fill="#4D4D4D" width="96.5" height="2.735"/>
			<rect x="688.136" y="401.192" fill="#4D4D4D" width="96.5" height="2.735"/>
			<rect x="688.136" y="408.427" fill="#4D4D4D" width="96.5" height="2.737"/>
			<rect x="688.136" y="415.653" fill="#4D4D4D" width="96.5" height="2.735"/>
			<rect x="688.136" y="422.88" fill="#4D4D4D" width="96.5" height="2.735"/>
		</g>
		<g>
			<rect x="459.622" y="379.509" fill="#4D4D4D" width="210.756" height="2.737"/>
			<rect x="459.622" y="386.739" fill="#4D4D4D" width="210.756" height="2.737"/>
			<rect x="459.622" y="393.966" fill="#4D4D4D" width="210.756" height="2.735"/>
			<rect x="459.622" y="401.192" fill="#4D4D4D" width="210.756" height="2.735"/>
			<rect x="459.622" y="408.427" fill="#4D4D4D" width="210.756" height="2.737"/>
			<rect x="459.622" y="415.653" fill="#4D4D4D" width="210.756" height="2.735"/>
			<rect x="459.622" y="422.88" fill="#4D4D4D" width="210.756" height="2.735"/>
		</g>
		<g>
			<rect x="459.622" y="502.949" fill="#4D4D4D" width="324.644" height="2.741"/>
			<rect x="459.622" y="510.18" fill="#4D4D4D" width="324.644" height="2.731"/>
			<rect x="459.622" y="517.416" fill="#4D4D4D" width="324.644" height="2.731"/>
		</g>
	</g>
</g>
<path fill="#F1F1F1" d="M637.022,153.252c-4.341,0-8.46,0.912-12.201,2.536c-3.547-16.101-17.874-28.15-35.037-28.15
	c-19.009,0-34.526,14.785-35.778,33.473c-13.669,1.472-24.316,13.031-24.316,27.095c0,15.053,12.199,27.254,27.25,27.254
	c2.261,0,4.441-0.307,6.54-0.826h73.542c16.951,0,30.689-13.741,30.689-30.694C667.712,166.994,653.974,153.252,637.022,153.252z"/>
</svg>
