<?xml version="1.0" encoding="utf-8"?>
<!-- Generator: Adobe Illustrator 16.0.0, SVG Export Plug-In . SVG Version: 6.00 Build 0)  -->
<!DOCTYPE svg PUBLIC "-//W3C//DTD SVG 1.1//EN" "http://www.w3.org/Graphics/SVG/1.1/DTD/svg11.dtd">
<svg version="1.1" id="design" xmlns="http://www.w3.org/2000/svg" xmlns:xlink="http://www.w3.org/1999/xlink" x="0px" y="0px"
	 width="1280px" height="800px" viewBox="0 0 1280 800" enable-background="new 0 0 1280 800" xml:space="preserve">
<polyline fill="#00C7FA" points="916.941,234 1017.561,234 1017.561,784.131 255.869,784.131 255.869,234 695.044,234 "/>
<polygon fill="#656872" points="1033.43,800 240,800 240,218.131 710.913,218.131 710.913,249.868 271.737,249.868 271.737,768.263 
	1001.692,768.263 1001.692,249.868 901.072,249.868 901.072,218.131 1033.43,218.131 "/>
<g>
	<polygon fill="#BDC3C7" points="610.401,318.643 474.526,318.643 474.526,699.504 940,699.504 940,318.643 832.313,318.643 	"/>
	<path fill="#656872" d="M955.869,715.373H458.658V302.774h497.211V715.373L955.869,715.373z M490.396,683.636h433.735V334.511
		H490.396V683.636L490.396,683.636z"/>
</g>
<g>
	<path fill="#656872" d="M361.664,546.104c-20.424,0-37.037-16.613-37.037-37.022c0-20.425,16.613-37.037,37.037-37.037
		c20.425,0,37.021,16.612,37.021,37.037C398.686,529.49,382.089,546.104,361.664,546.104L361.664,546.104z M361.664,503.781
		c-2.913,0-5.3,2.371-5.3,5.3c0,2.913,2.387,5.284,5.3,5.284c2.914,0,5.285-2.371,5.285-5.284
		C366.949,506.152,364.578,503.781,361.664,503.781L361.664,503.781z"/>
</g>
<g>
	<polygon fill="#656872" points="377.533,419.153 345.796,419.153 345.796,302.774 377.533,302.774 	"/>
</g>
<g>
	<polygon fill="#656872" points="377.533,715.373 345.796,715.373 345.796,598.993 377.533,598.993 	"/>
</g>
<g>
	<polyline fill="#BDBF6D" points="642.2,305.625 615.484,332.311 615.484,424.531 707.658,424.5 732.407,399.768 	"/>
	<polygon fill="#656872" points="599.615,440.4 599.615,325.725 642.216,283.186 664.64,305.641 631.353,338.881 631.353,408.662 
		701.088,408.632 732.407,377.328 754.846,399.768 714.229,440.369 	"/>
</g>
<polyline fill="#ED7161" points="732.407,399.768 1017.561,114.613 925.371,22.439 642.2,305.625 "/>
<polygon fill="#656872" points="732.407,422.207 709.968,399.768 995.122,114.613 925.371,44.878 642.2,328.064 619.762,305.625 
	925.371,0 1040,114.613 "/>
<g>
	<polygon fill="#656872" points="723.016,416.287 623.76,317 646.214,294.561 745.455,393.848 	"/>
</g>
<g>
	<polygon fill="#656872" points="594.408,468 571.97,445.545 609.797,407.764 632.221,430.218 	"/>
</g>
</svg>
