<?xml version="1.0" encoding="utf-8"?>
<!-- Generator: Adobe Illustrator 16.0.0, SVG Export Plug-In . SVG Version: 6.00 Build 0)  -->
<!DOCTYPE svg PUBLIC "-//W3C//DTD SVG 1.1//EN" "http://www.w3.org/Graphics/SVG/1.1/DTD/svg11.dtd">
<svg version="1.1" id="hosting" xmlns="http://www.w3.org/2000/svg" xmlns:xlink="http://www.w3.org/1999/xlink" x="0px" y="0px"
	 width="1280px" height="800px" viewBox="0 0 1280 800" enable-background="new 0 0 1280 800" xml:space="preserve">
<g>
	<path fill="#BDC3C7" d="M958.766,188.719V118c0-14.078-11.438-25.5-25.5-25.5H652.75c-14.094,0-25.516-11.422-25.516-25.5V41.5
		c0-14.094-11.422-25.5-25.516-25.5h-178.5c-14.078,0-25.5,11.406-25.5,25.5V67c0,14.078-11.421,25.5-25.484,25.5h-25.516
		c-14.078,0-25.484,11.422-25.484,25.5v70.719"/>
	<path fill="#656872" d="M958.766,204.718c-8.844,0-16-7.156-16-16V118c0-5.25-4.266-9.5-9.5-9.5H652.75
		c-22.891,0-41.516-18.625-41.516-41.5V41.5c0-5.25-4.266-9.5-9.516-9.5h-178.5c-5.234,0-9.5,4.25-9.5,9.5V67
		c0,22.875-18.609,41.5-41.484,41.5h-25.516c-5.226,0-9.484,4.25-9.484,9.5v70.719c0,8.844-7.165,16-16,16s-16-7.156-16-16V118
		c0-22.875,18.609-41.5,41.484-41.5h25.516c5.226,0,9.484-4.266,9.484-9.5V41.5c0-22.875,18.617-41.5,41.5-41.5h178.5
		c22.891,0,41.516,18.625,41.516,41.5V67c0,5.234,4.266,9.5,9.516,9.5h280.516c22.891,0,41.5,18.625,41.5,41.5v70.719
		C974.766,197.562,967.609,204.718,958.766,204.718L958.766,204.718z"/>
</g>
<path fill="#00C7FA" d="M933.266,602.531H346.719c-14.078,0-25.484-11.406-25.484-25.5V194.5c0-14.079,11.406-25.5,25.484-25.5
	h586.547c14.062,0,25.5,11.421,25.5,25.5v382.531C958.766,591.125,947.328,602.531,933.266,602.531z"/>
<path fill="#656872" d="M933.266,618.531H346.719c-22.875,0-41.484-18.626-41.484-41.5V194.5c0-22.875,18.609-41.5,41.484-41.5
	h586.547c22.891,0,41.5,18.625,41.5,41.5v382.531C974.766,599.905,956.156,618.531,933.266,618.531L933.266,618.531z M346.719,185
	c-5.226,0-9.484,4.266-9.484,9.5v382.531c0,5.234,4.258,9.5,9.484,9.5h586.547c5.234,0,9.5-4.266,9.5-9.5V194.5
	c0-5.234-4.266-9.5-9.5-9.5H346.719L346.719,185z"/>
<g>
	<path fill="#656872" d="M639.984,691.594c-8.836,0-16-7.172-16-16v-62.188c0-8.828,7.164-16.001,16-16.001s16,7.173,16,16.001
		v62.188C655.984,684.422,648.82,691.594,639.984,691.594L639.984,691.594z"/>
</g>
<g>
	<path fill="#656872" d="M914.266,754.062H692.047c-8.836,0-16-7.156-16-16s7.164-16,16-16h222.219c8.844,0,16,7.156,16,16
		S923.109,754.062,914.266,754.062L914.266,754.062z"/>
</g>
<g>
	<path fill="#656872" d="M587.953,754.062H365.719c-8.836,0-16-7.156-16-16s7.165-16,16-16h222.234c8.836,0,16,7.156,16,16
		S596.789,754.062,587.953,754.062L587.953,754.062z"/>
</g>
<path fill="#ED7161" d="M692.484,731.484c0,29.016-23.5,52.516-52.5,52.516s-52.5-23.5-52.5-52.516
	c0-28.984,23.5-52.453,52.5-52.453S692.484,702.5,692.484,731.484z"/>
<path fill="#656872" d="M639.984,800c-37.773,0-68.5-30.734-68.5-68.516c0-37.734,30.727-68.454,68.5-68.454s68.5,30.72,68.5,68.454
	C708.484,769.266,677.758,800,639.984,800L639.984,800z M639.984,695.031c-20.125,0-36.5,16.344-36.5,36.453
	c0,20.14,16.375,36.516,36.5,36.516s36.5-16.376,36.5-36.516C676.484,711.375,660.109,695.031,639.984,695.031L639.984,695.031z"/>
<g>
	<g>
		<path fill="#656872" d="M468.547,64.203c0,8.734-7.078,15.844-15.797,15.844c-8.75,0-15.844-7.109-15.844-15.844
			S444,48.375,452.75,48.375C461.469,48.375,468.547,55.469,468.547,64.203z"/>
	</g>
	<g>
		<path fill="#656872" d="M521.312,64.203c0,8.734-7.094,15.844-15.828,15.844c-8.719,0-15.844-7.109-15.844-15.844
			s7.125-15.828,15.844-15.828C514.219,48.375,521.312,55.469,521.312,64.203z"/>
	</g>
	<g>
		<path fill="#656872" d="M574.062,64.203c0,8.734-7.109,15.844-15.844,15.844s-15.812-7.109-15.812-15.844
			s7.078-15.828,15.812-15.828S574.062,55.469,574.062,64.203z"/>
	</g>
</g>
<g>
	<polygon fill="#656872" points="896.345,308.781 721.625,308.781 721.625,276.781 896.345,276.781 	"/>
</g>
<g>
	<polygon fill="#656872" points="896.345,251.641 721.625,251.641 721.625,219.64 896.345,219.64 	"/>
</g>
</svg>
