<?xml version="1.0" encoding="utf-8"?>
<!-- Generator: Adobe Illustrator 16.0.0, SVG Export Plug-In . SVG Version: 6.00 Build 0)  -->
<!DOCTYPE svg PUBLIC "-//W3C//DTD SVG 1.1//EN" "http://www.w3.org/Graphics/SVG/1.1/DTD/svg11.dtd">
<svg version="1.1" id="idea-bulb" xmlns="http://www.w3.org/2000/svg" xmlns:xlink="http://www.w3.org/1999/xlink" x="0px" y="0px"
	 width="1280px" height="800px" viewBox="0 0 1280 800" enable-background="new 0 0 1280 800" xml:space="preserve">
<g>
	<path fill="#CCD1D9" d="M731.109,695.688c0,53.031-37.392,88.312-90.438,88.312c-53.031,0-93.891-35.281-93.891-88.312"/>
	<path fill="#656872" d="M640.672,800C577,800,530.781,756.125,530.781,695.688c0-8.844,7.172-16,16-16c8.844,0,16,7.156,16,16
		c0,42.578,32.031,72.312,77.891,72.312c44.516,0,74.438-29.062,74.438-72.312c0-8.844,7.155-16,16-16c8.829,0,16,7.156,16,16
		C747.109,757.109,703.344,800,640.672,800L640.672,800z"/>
</g>
<polyline fill="#00C7FA" points="731.109,526.719 731.109,695.688 546.781,695.688 546.781,526.719 "/>
<path fill="#656872" d="M731.109,711.688H546.781c-8.828,0-16-7.155-16-16V526.719c0-8.845,7.172-16,16-16c8.844,0,16,7.155,16,16
	v152.969h152.328V526.719c0-8.845,7.155-16,16-16c8.828,0,16,7.155,16,16v168.969C747.109,704.531,739.938,711.688,731.109,711.688
	L731.109,711.688z"/>
<g>
	<path fill="#656872" d="M454.266,70.406c-4.094,0-8.188-1.562-11.312-4.688l-38.406-38.406c-6.25-6.25-6.25-16.375,0-22.625
		s16.375-6.25,22.625,0l38.406,38.406c6.25,6.25,6.25,16.375,0,22.625C462.453,68.844,458.359,70.406,454.266,70.406L454.266,70.406
		z"/>
</g>
<g>
	<path fill="#656872" d="M838.266,70.406c-4.094,0-8.188-1.562-11.312-4.688c-6.25-6.25-6.25-16.375,0-22.625L865.36,4.687
		c6.25-6.25,16.375-6.25,22.625,0s6.25,16.375,0,22.625l-38.406,38.406C846.453,68.844,842.359,70.406,838.266,70.406
		L838.266,70.406z"/>
</g>
<g>
	<path fill="#656872" d="M415.859,531.203c-4.095,0-8.188-1.562-11.312-4.688c-6.25-6.25-6.25-16.375,0-22.625l38.406-38.405
		c6.25-6.25,16.375-6.25,22.625,0s6.25,16.375,0,22.625l-38.406,38.405C424.047,529.641,419.953,531.203,415.859,531.203
		L415.859,531.203z"/>
</g>
<g>
	<path fill="#656872" d="M876.672,531.203c-4.094,0-8.188-1.562-11.312-4.688l-38.406-38.405c-6.25-6.25-6.25-16.375,0-22.625
		s16.375-6.25,22.625,0l38.406,38.405c6.25,6.25,6.25,16.375,0,22.625C884.859,529.641,880.766,531.203,876.672,531.203
		L876.672,531.203z"/>
</g>
<g>
	<path fill="#656872" d="M347.109,281.593h-61.453c-8.828,0-16-7.156-16-16c0-8.844,7.171-16,16-16h61.453c8.828,0,16,7.156,16,16
		C363.109,274.438,355.938,281.593,347.109,281.593L347.109,281.593z"/>
</g>
<g>
	<path fill="#656872" d="M994.344,281.593h-61.437c-8.845,0-16.001-7.156-16.001-16c0-8.844,7.156-16,16.001-16h61.437
		c8.828,0,16,7.156,16,16C1010.344,274.438,1003.172,281.593,994.344,281.593L994.344,281.593z"/>
</g>
<path fill="#ED7161" d="M809.172,102.703c-89.953-89.969-235.812-89.969-325.812,0c-90,89.922-91.75,235.844-1.734,325.812
	c19.891,19.859,34.438,34.656,65.156,45.734v67.843H731.11V474.25c30.704-11.079,52.608-25.875,72.483-45.734
	C893.594,338.547,899.156,192.672,809.172,102.703z"/>
<path fill="#656872" d="M731.109,558.094H546.781c-8.828,0-16-7.156-16-16.001V485.11c-26.875-11.72-42.219-27.047-59.688-44.484
	c-47.266-47.25-72.594-109.172-72.108-175.156c0.483-65.672,26.438-127.5,73.062-174.078
	c46.547-46.531,108.422-72.156,174.234-72.156c65.812,0,127.672,25.625,174.203,72.156c46.312,46.297,70.952,108.312,69.391,174.594
	c-1.547,65.329-28.172,127.062-74.969,173.844c-20.312,20.297-41.562,34.562-67.797,45.39v56.875
	C747.109,550.938,739.938,558.094,731.109,558.094L731.109,558.094z M562.781,526.094h152.328V474.25
	c0-6.75,4.219-12.766,10.562-15.047c26.594-9.594,47.142-22.547,66.61-42c40.952-40.938,64.249-94.906,65.593-151.969
	c1.359-57.453-19.953-111.156-60.016-151.219c-40.484-40.484-94.312-62.781-151.578-62.781c-57.267,0-111.109,22.297-151.609,62.781
	c-40.641,40.61-63.266,94.485-63.688,151.688c-0.423,57.344,21.577,111.141,61.952,151.5c19.767,19.75,32.312,32.281,59.281,42
	c6.344,2.281,10.562,8.297,10.562,15.047v51.844H562.781z"/>
<g>
	<path fill="#656872" d="M537.656,390.203c-4.094,0-8.188-1.562-11.312-4.688c-32.047-32.047-49.688-74.625-49.688-119.907
		c0-45.266,17.641-87.859,49.688-119.921c6.25-6.25,16.375-6.25,22.625,0s6.25,16.375,0.017,22.625
		c-26.017,26.016-40.328,60.579-40.328,97.297c0,36.735,14.312,71.282,40.312,97.282c6.25,6.25,6.25,16.375,0,22.625
		C545.844,388.641,541.75,390.203,537.656,390.203L537.656,390.203z"/>
</g>
<g>
	<path fill="#656872" d="M717.719,662.5H560.172c-8.844,0-16-7.156-16-16s7.156-16,16-16h157.547c8.828,0,16,7.156,16,16
		S726.547,662.5,717.719,662.5L717.719,662.5z"/>
</g>
<g>
	<path fill="#656872" d="M717.719,609.562H560.172c-8.844,0-16-7.157-16-16c0-8.845,7.156-16.002,16-16.002h157.547
		c8.828,0,16,7.157,16,16.002C733.719,602.405,726.547,609.562,717.719,609.562L717.719,609.562z"/>
</g>
</svg>
