<?xml version="1.0" encoding="utf-8"?>
<!-- Generator: Adobe Illustrator 16.0.0, SVG Export Plug-In . SVG Version: 6.00 Build 0)  -->
<!DOCTYPE svg PUBLIC "-//W3C//DTD SVG 1.1//EN" "http://www.w3.org/Graphics/SVG/1.1/DTD/svg11.dtd">
<svg version="1.1" id="Layer_1" xmlns="http://www.w3.org/2000/svg" xmlns:xlink="http://www.w3.org/1999/xlink" x="0px" y="0px"
	 width="1280px" height="800px" viewBox="0 0 1280 800" enable-background="new 0 0 1280 800" xml:space="preserve">
<path fill="#00C7FA" d="M976,746.539v21.333l-183.584,26.667l-16-53.334l-64-58.666l-21.333,5.333l-5.334-32
	c0,0-27.04,18.613-58.666-16c-50.4-4.106-98.027,5.493-90.667-53.333l-9.066-11.841l9.066-25.493l-48-26.666
	c0,0-41.813-49.813-32-69.334c9.813-19.52,10.667-37.333,10.667-37.333h-26.667c0,0-22.986-19.307-21.333-48l6.826-4.854
	l19.84,10.187l-10.666-32l37.333-16l-48-5.333l-5.333,26.667l-32-16l5.333-26.667l-48-48v-21.333l-10.667-21.333l10.667-16
	l-38.133-52.426c-2.773-3.787-3.04-8.854-0.693-12.96l17.493-30.614V58.539c0,0,12.427-19.307-5.333-37.333
	c1.6-7.573,5.333-16,5.333-16h250.667v240l378.667,325.334c0,0,7.094,21.493,16.213,37.173c7.307,12.587,6.827,28.16-1.866,39.787
	v0.053l1.653,34.987l-16,21.333v26.667L976,746.539z M605.749,443.285c0.106-29.974-26.773-53.653-57.6-47.68
	c-18.667,3.573-33.813,18.72-37.547,37.547c-1.333,6.773-1.28,13.333-0.054,19.52c1.12,5.76,3.574,11.146,6.667,16.16l40.214,64.427
	c0,0,40.319-62.134,43.733-69.387C604.096,457.632,605.749,450.646,605.749,443.285z"/>
<path fill="#ED7161" d="M548.149,395.605c30.826-5.974,57.706,17.707,57.6,47.68c0,7.36-1.653,14.347-4.587,20.587
	c-3.413,7.253-43.732,69.387-43.732,69.387l-40.214-64.427c-3.093-5.014-5.547-10.4-6.667-16.16
	c-1.227-6.187-1.279-12.746,0.054-19.52C514.336,414.325,529.482,399.179,548.149,395.605z M579.083,442.592
	c0.053-11.84-9.44-21.439-21.228-21.439c-11.786-0.054-21.333,9.493-21.386,21.333c0,11.787,9.493,21.387,21.279,21.44
	C569.482,463.979,579.083,454.432,579.083,442.592z"/>
<g>
	<path fill="#00C7FA" d="M845.749,767.872l-16-53.333l-64-58.667l-21.333,5.333l-5.333-32c0,0-27.04,18.613-58.667-16
		c-50.4-4.106-98.026,5.493-90.667-53.333l-9.066-11.84l9.066-25.493l-18.698-10.39c-7.59,11.813-13.621,21.109-13.621,21.109
		l-40.214-64.427c-3.093-5.014-5.547-10.4-6.667-16.16c-0.666-3.359-0.949-6.837-0.891-10.39c-1.664-6.085-1.983-11.61,0.091-15.743
		c9.813-19.521,10.667-37.334,10.667-37.334h-26.667c0,0-22.986-19.307-21.333-48v-16l-37.333,16l10.666,32l-19.84-10.187
		l-6.826,4.854c-1.653,28.693,21.333,48,21.333,48h26.667c0,0-0.854,17.813-10.667,37.333c-9.813,19.521,32,69.334,32,69.334
		l48,26.666l-9.066,25.493l9.066,11.841c-7.36,58.826,40.267,49.227,90.667,53.333c31.626,34.613,58.666,16,58.666,16l5.334,32
		l21.333-5.333l64,58.666l16,53.334L976,767.872v-18.821L845.749,767.872z"/>
	<path fill="#00C7FA" d="M440.416,303.872l5.333-26.667l-48-48v-21.333l-10.667-21.333l10.667-16l-38.133-52.427
		c-2.773-3.787-3.04-8.853-0.693-12.96l17.493-30.613V31.872c0,0,7.968-12.438,1.952-26.667h-55.286c0,0-3.733,8.427-5.333,16
		c17.76,18.027,5.333,37.333,5.333,37.333v42.667l-17.493,30.614c-2.347,4.106-2.08,9.173,0.693,12.96l38.133,52.427l-10.667,16
		l10.667,21.333v21.333l48,48l-5.333,26.667l32,16l5.333-26.667l48,5.333v-5.333L440.416,303.872z"/>
</g>
<g>
	<path fill="#FFD458" d="M558.154,422.262c11.787-0.16,21.408,9.307,21.521,21.146c0.16,11.84-9.307,21.515-21.04,21.627
		c-11.787,0.106-21.408-9.36-21.573-21.147C536.955,432.048,546.368,422.368,558.154,422.262z"/>
</g>
<path fill="#FFC658" d="M553.066,443.888c-0.085-9.099,5.482-16.874,13.403-20.059c-2.561-1.045-5.366-1.61-8.31-1.567
	c-11.787,0.106-21.2,9.786-21.094,21.626c0.16,11.787,9.787,21.254,21.573,21.146c2.736-0.026,5.328-0.613,7.723-1.589
	C558.65,460.288,553.184,452.741,553.066,443.888z"/>
<g>
	<path fill="#ED7161" d="M554.549,468.832c-1.199-1.946-2.267-3.974-3.231-6.032c-8.603-2.784-14.843-10.784-14.843-20.314
		c0.043-9.686,6.48-17.738,15.253-20.357c5.051-10.598,13.861-19.072,24.619-23.621c-8.442-3.59-18.096-4.858-28.197-2.901
		c-18.667,3.573-33.813,18.72-37.547,37.547c-1.333,6.773-1.28,13.333-0.054,19.52c1.12,5.76,3.574,11.146,6.667,16.16
		l40.214,64.427c0,0,9.066-13.968,18.96-29.435L554.549,468.832z"/>
</g>
<g>
	<path fill="#FFFFFF" d="M978.992,742.128l-21.243-14.416v-22.063l14.934-19.91c0.747-0.991,1.12-2.208,1.062-3.445l-1.573-33.194
		c8.741-12.971,9.21-30.043,1.066-44.063c-8.726-14.998-15.686-35.958-15.76-36.166c-0.304-0.923-0.854-1.738-1.59-2.373
		L579.083,242.763V5.205c0-2.944-2.385-5.333-5.334-5.333H323.083c-2.112,0-4.021,1.243-4.875,3.173
		c-0.166,0.368-3.974,9.029-5.68,17.056c-0.368,1.749,0.166,3.573,1.424,4.848c14.432,14.651,5.035,30.08,4.645,30.704
		c-0.555,0.859-0.848,1.861-0.848,2.885v41.248l-16.789,29.381c-3.392,5.925-2.992,13.291,1.008,18.747l35.941,49.424l-8.603,12.906
		c-1.062,1.589-1.189,3.632-0.331,5.344l10.106,20.208v20.075c0,1.413,0.56,2.773,1.563,3.771l45.979,45.984l-4.773,23.867
		c-0.475,2.357,0.693,4.741,2.843,5.819l32,16c1.482,0.741,3.232,0.752,4.73,0.021c1.499-0.73,2.561-2.111,2.886-3.744l4.373-21.871
		l23.034,2.56l-18.741,8.032c-2.555,1.093-3.84,3.957-2.96,6.587l6.533,19.594l-8.207-4.218c-1.787-0.907-3.91-0.763-5.525,0.399
		l-6.827,4.854c-1.322,0.938-2.139,2.427-2.234,4.037c-1.787,31.008,22.202,51.531,23.221,52.39
		c0.966,0.806,2.177,1.248,3.435,1.248h20.684c-1.003,6.469-3.483,17.755-9.445,29.605c-10.838,21.562,25.322,66.389,32.683,75.157
		c0.416,0.501,0.922,0.917,1.493,1.231l44.053,24.476l-7.552,21.236c-0.603,1.702-0.31,3.596,0.789,5.024l7.75,10.128
		c-1.824,17.259,0.96,29.979,8.479,38.827c12.849,15.125,36.331,16.011,63.525,17.04c7.077,0.267,14.379,0.544,21.723,1.088
		c23.979,25.189,46.106,22.389,57.029,18.581l4.192,25.136c0.245,1.467,1.093,2.773,2.336,3.584
		c1.237,0.816,2.768,1.088,4.213,0.715l18.555-4.635l60.8,55.733l15.579,51.926c0.688,2.282,2.778,3.803,5.104,3.803
		c0.256,0,0.517-0.017,0.773-0.06l183.584-26.666c2.623-0.379,4.564-2.624,4.564-5.274v-21.334
		C981.333,744.773,980.459,743.114,978.992,742.128z M970.667,763.253l-174.464,25.345l-14.678-48.929
		c-0.277-0.922-0.795-1.749-1.504-2.399l-64-58.667c-0.997-0.912-2.288-1.402-3.605-1.402c-0.432,0-0.864,0.054-1.291,0.16
		l-15.728,3.931l-4.384-26.305c-0.305-1.803-1.499-3.322-3.179-4.037c-1.664-0.704-3.601-0.522-5.109,0.522
		c-0.229,0.149-23.542,15.611-51.701-15.21c-0.912-0.998-2.16-1.611-3.505-1.718c-8.267-0.672-16.384-0.981-24.239-1.274
		c-24.672-0.934-45.984-1.738-55.798-13.285c-5.792-6.816-7.675-17.542-5.771-32.79c0.171-1.392-0.202-2.789-1.056-3.898
		l-7.302-9.541l8.096-22.769c0.87-2.458-0.154-5.184-2.437-6.447l-47.131-26.188c-16.314-19.647-36.299-51.61-30.693-62.757
		c10.208-20.299,11.194-38.704,11.227-39.472c0.069-1.456-0.464-2.88-1.467-3.937c-1.003-1.051-2.4-1.653-3.861-1.653h-24.576
		c-4.432-4.319-18.219-19.408-18.171-39.851l2.027-1.439l16.954,8.704c1.92,0.991,4.262,0.72,5.91-0.699
		c1.647-1.413,2.271-3.675,1.584-5.733l-9.115-27.344l32.821-14.069c2.229-0.955,3.531-3.285,3.179-5.68
		c-0.352-2.395-2.282-4.251-4.688-4.518l-48-5.333c-2.699-0.326-5.275,1.541-5.819,4.25l-3.962,19.819l-22.112-11.057l4.533-22.672
		c0.347-1.749-0.197-3.557-1.456-4.816l-46.438-46.438v-19.125c0-0.827-0.192-1.648-0.56-2.384l-9.28-18.565l8.949-13.424
		c1.237-1.856,1.189-4.288-0.123-6.096l-38.139-52.442c-1.52-2.075-1.664-4.885-0.363-7.163l17.488-30.613
		c0.464-0.806,0.704-1.718,0.704-2.646V60c4.522-8.235,8.256-25.12-4.843-40.314c0.917-3.403,2.139-6.79,3.061-9.147H568.41v234.667
		c0,1.557,0.678,3.029,1.861,4.042l377.558,324.379c1.771,5.146,8.149,22.949,16.182,36.763c6.331,10.896,5.733,24.208-1.521,33.914
		c-0.741,0.992-1.114,2.262-1.056,3.493l1.562,33.067l-14.848,19.803c-0.693,0.923-1.066,2.042-1.066,3.2v26.666
		c0,1.766,0.874,3.424,2.336,4.411l21.242,14.416v13.893H970.667z"/>
	<path fill="#FFFFFF" d="M591.584,401.552c-12.314-10.197-28.528-14.282-44.432-11.184c-20.827,3.983-37.616,20.763-41.781,41.755
		c-1.436,7.279-1.445,14.549-0.054,21.567c1.146,5.904,3.558,11.776,7.376,17.968l40.213,64.427c0.971,1.547,2.656,2.496,4.48,2.513
		c0.016,0,0.032,0,0.048,0c1.808,0,3.488-0.912,4.475-2.433c4.145-6.389,40.613-62.65,44.091-70.021
		c3.376-7.185,5.083-14.864,5.088-22.832C611.142,427.077,604.032,411.856,591.584,401.552z M600.416,443.285
		c0,6.395-1.371,12.555-4.074,18.314c-2.177,4.624-22.955,37.174-38.827,61.723l-35.755-57.29c-3.12-5.057-5.072-9.761-5.979-14.4
		c-1.125-5.669-1.104-11.541,0.054-17.445c3.328-16.768,16.72-30.165,33.333-33.344c2.901-0.565,5.787-0.843,8.635-0.843
		c9.872,0,19.227,3.344,26.981,9.766c9.983,8.267,15.68,20.475,15.637,33.498C600.416,443.274,600.416,443.28,600.416,443.285z"/>
	<path fill="#FFFFFF" d="M558.091,416.928c-14.672,0.145-26.496,12.256-26.357,27.029c0.202,14.613,12.154,26.405,26.709,26.405
		c0.08,0,0.165,0,0.251,0c7.094-0.069,13.744-2.906,18.72-8c5.003-5.114,7.696-11.872,7.601-19.002
		c-0.069-7.185-2.918-13.889-8.032-18.886C571.898,419.515,565.242,416.906,558.091,416.928z M569.781,454.912
		c-2.981,3.045-6.955,4.746-11.194,4.784c-0.048,0-0.102,0-0.145,0c-8.741,0-15.92-7.094-16.042-15.861
		c-0.086-8.875,7.008-16.16,15.808-16.245c0.08,0,0.165,0,0.245,0c4.16,0,8.091,1.594,11.072,4.512
		c3.066,2.997,4.778,7.029,4.816,11.376C574.4,447.781,572.778,451.84,569.781,454.912z"/>
</g>
</svg>
