<?xml version="1.0" encoding="utf-8"?>
<!-- Generator: Adobe Illustrator 16.0.0, SVG Export Plug-In . SVG Version: 6.00 Build 0)  -->
<!DOCTYPE svg PUBLIC "-//W3C//DTD SVG 1.1//EN" "http://www.w3.org/Graphics/SVG/1.1/DTD/svg11.dtd">
<svg version="1.1" id="Layer_1" xmlns="http://www.w3.org/2000/svg" xmlns:xlink="http://www.w3.org/1999/xlink" x="0px" y="0px"
	 width="1280px" height="800px" viewBox="0 0 1280 800" enable-background="new 0 0 1280 800" xml:space="preserve">
<path fill="#ED7161" d="M640.008,10.667c134.027,0,242.667,108.64,242.667,242.667c0,48.106-13.974,92.959-38.134,130.667
	L640.008,709.333L429.074,373.387c-20.213-35.413-31.732-76.374-31.732-120.053C397.342,119.307,505.98,10.667,640.008,10.667z
	 M754.675,248c0-63.36-51.307-114.667-114.667-114.667c-63.358,0-114.666,51.307-114.666,114.667
	c0,63.36,51.308,114.667,114.666,114.667C703.368,362.667,754.675,311.36,754.675,248z"/>
<g>
	<path fill="#ED7161" d="M493.074,373.387c-20.213-35.413-31.732-76.374-31.732-120.053c0-123.173,91.775-224.832,210.666-240.501
		c-10.479-1.381-21.146-2.166-32-2.166c-134.025,0-242.666,108.64-242.666,242.667c0,43.68,11.521,84.64,31.732,120.053
		l210.934,335.946l32.021-50.933L493.074,373.387z"/>
</g>
<g>
	<path fill="#58595B" d="M893.342,253.333C893.342,113.648,779.693,0,640.008,0C500.323,0,386.675,113.648,386.675,253.333
		c0,44.021,11.456,87.36,33.136,125.338c0.043,0.075,0.103,0.134,0.146,0.203c0.037,0.059,0.053,0.122,0.09,0.176L630.98,714.996
		c0.031,0.054,0.079,0.086,0.116,0.139c0.459,0.704,0.987,1.365,1.616,1.958c0.103,0.097,0.219,0.159,0.32,0.25
		c0.41,0.357,0.826,0.715,1.301,1.015c0.091,0.059,0.197,0.073,0.288,0.128c0.565,0.331,1.168,0.569,1.781,0.795
		c0.288,0.105,0.561,0.256,0.854,0.33c0.832,0.225,1.69,0.336,2.562,0.353c0.059,0,0.122,0.026,0.181,0.026c0.006,0,0.006,0,0.011,0
		c0.006,0,0.006,0,0.012,0c0.059,0,0.123-0.026,0.182-0.026c0.869-0.017,1.728-0.134,2.56-0.357
		c0.283-0.074,0.551-0.225,0.832-0.324c0.624-0.226,1.237-0.471,1.813-0.812c0.091-0.054,0.187-0.068,0.271-0.123
		c0.447-0.281,0.832-0.618,1.222-0.948c0.134-0.117,0.288-0.203,0.416-0.325c0.618-0.582,1.137-1.232,1.584-1.92
		c0.036-0.06,0.097-0.103,0.134-0.16l204.533-325.334c0.005-0.01,0.011-0.021,0.016-0.031
		C879.592,349.014,893.342,301.883,893.342,253.333z M640.008,21.333c127.926,0,232,104.075,232,232
		c0,44.506-12.603,87.696-36.447,124.912c-0.006,0.011-0.012,0.021-0.017,0.032c-0.011,0.016-0.026,0.025-0.037,0.048
		l-195.493,310.96L438.312,368.037c-19.824-34.746-30.306-74.411-30.306-114.704C408.008,125.408,512.083,21.333,640.008,21.333z"/>
	<path fill="#58595B" d="M640.008,373.333c69.109,0,125.334-56.224,125.334-125.333c0-69.109-56.225-125.333-125.334-125.333
		c-69.108,0-125.333,56.224-125.333,125.333C514.675,317.109,570.898,373.333,640.008,373.333z M640.008,144
		c57.344,0,104,46.656,104,104s-46.656,104-104,104s-104-46.656-104-104S582.664,144,640.008,144z"/>
	<ellipse fill="#58595B" cx="640.008" cy="784" rx="88" ry="16"/>
</g>
<circle fill="#00C7FA" cx="641.397" cy="247.202" r="106.389"/>
</svg>
