<?xml version="1.0" encoding="utf-8"?>
<!-- Generator: Adobe Illustrator 16.0.0, SVG Export Plug-In . SVG Version: 6.00 Build 0)  -->
<!DOCTYPE svg PUBLIC "-//W3C//DTD SVG 1.1//EN" "http://www.w3.org/Graphics/SVG/1.1/DTD/svg11.dtd">
<svg version="1.1" id="Layer_1" xmlns="http://www.w3.org/2000/svg" xmlns:xlink="http://www.w3.org/1999/xlink" x="0px" y="0px"
	 width="1280px" height="800px" viewBox="0 0 1280 800" enable-background="new 0 0 1280 800" xml:space="preserve">
<polygon fill="#F26F61" points="590.547,540.64 588.467,543.146 293.427,789.174 293.427,292.106 361,348.64 492.52,458.667 
	492.573,458.667 549.906,506.667 "/>
<path fill="#F26F61" d="M986.707,789.174v0.159h-693.28v-0.159l295.04-246.027l2.08-2.507L613.693,560
	c14.934,12.48,36.533,12.48,51.467,0.054l23.894-19.894l0.373,0.479L986.707,789.174z"/>
<polygon fill="#F26F61" points="986.707,292.106 986.707,789.174 689.427,540.64 689.054,540.16 729.213,506.667 729.267,506.667 
	780.787,463.733 919.24,348.32 986.653,292.16 "/>
<polygon fill="#00C7FA" points="986.653,292.16 919.24,348.32 917.32,346.026 917.32,234.667 918.92,234.667 986.6,292.106 "/>
<polygon fill="#00C7FA" points="362.653,230.133 362.653,346.667 361,348.64 293.427,292.106 293.427,287.626 362.333,230.133 "/>
<path fill="#00C7FA" d="M723.507,68.427v0.693l-164.641,0.106v-2.88l55.947-46.667c14.88-12.427,36.533-12.427,51.467,0.053
	L723.507,68.427z"/>
<path fill="#F3F4F4" d="M729.213,506.667l-40.159,33.493l-23.894,19.894c-14.934,12.427-36.533,12.427-51.467-0.054l-23.146-19.36
	l-40.641-33.973H729.213z"/>
<polygon fill="#F3F4F4" points="776.573,458.667 780.787,463.733 729.267,506.667 729.213,506.667 549.906,506.667 492.573,458.667 
	"/>
<polygon fill="#F47B6C" points="986.653,292.16 919.24,348.32 878.974,381.888 878.974,699.104 986.707,789.174 986.707,292.106 "/>
<polygon fill="#F3F4F4" points="492.52,458.667 361,348.64 362.653,346.667 362.653,230.133 362.653,69.333 558.867,69.227 
	723.507,69.12 917.32,69.013 917.32,234.667 917.32,346.026 919.24,348.32 780.787,463.733 776.573,458.667 492.573,458.667 "/>
<g>
	<polygon fill="#FFFFFF" points="917.32,69.013 879.986,69.035 879.986,381.04 919.24,348.32 917.32,346.026 917.32,234.667 	"/>
</g>
<polygon fill="#E6695C" points="293.374,292.16 360.787,348.32 401.054,381.888 401.054,699.104 293.32,789.174 293.32,292.106 "/>
<g>
	<polygon fill="#E5E6E7" points="362.707,69.013 400.04,69.035 400.04,381.04 360.787,348.32 362.707,346.026 362.707,234.667 	"/>
</g>
<g>
	<path fill="#58595B" d="M992.638,283.248l-64.651-54.875V58.341l-199.738,0.112l-55.131-46.901
		c-18.88-15.781-46.282-15.808-65.142-0.059l-55.94,46.667c-0.149,0.123-0.257,0.272-0.396,0.4l-199.653,0.112v166.197
		l-65.397,54.571c-3.131,2.608-4.336,6.619-3.562,10.347c-0.048,0.219-0.069,0.443-0.102,0.662
		c-0.059,0.389-0.101,0.773-0.117,1.163c-0.005,0.17-0.048,0.325-0.048,0.496V800h703.947l10.666-0.16V292.106
		C997.373,288.411,995.49,285.163,992.638,283.248z M304.088,314.938l181.584,151.909c0.102,0.086,0.214,0.139,0.314,0.219
		l88.379,73.941L304.088,766.384V314.938z M658.333,551.856c-10.971,9.119-26.863,9.104-37.803-0.038l-41.216-34.485h120.438
		L658.333,551.856z M725.4,496H553.816l-31.872-26.667H757.4L725.4,496z M591,554.923l15.851,13.264
		c9.445,7.888,21.019,11.835,32.603,11.835c11.553,0,23.099-3.92,32.528-11.771l16.944-14.123l268.581,224.539H322.68L591,554.923z
		 M705.581,540.245l30.229-25.194c0.091-0.069,0.192-0.117,0.277-0.192l239.947-199.968v451.461L705.581,540.245z M970.083,292.085
		l-42.097,35.083v-70.816L970.083,292.085z M621.646,27.867c10.928-9.131,26.821-9.115,37.717-0.005l35.984,30.613l-110.47,0.064
		L621.646,27.867z M906.653,79.686v265.259L781.49,449.259c-1.477-0.778-3.136-1.259-4.922-1.259H496.392l-31.877-26.667h331.946
		c5.889,0,10.667-4.778,10.667-10.666c0-5.889-4.778-10.667-10.667-10.667H439.016l-65.696-54.96V79.995L906.653,79.686z
		 M351.987,327.189l-44.608-37.317l44.608-37.221V327.189z"/>
	<path fill="#58595B" d="M436.729,154.667h91.253c5.888,0,10.667-4.778,10.667-10.667s-4.779-10.667-10.667-10.667h-91.253
		c-5.889,0-10.667,4.778-10.667,10.667S430.84,154.667,436.729,154.667z"/>
	<path fill="#58595B" d="M436.729,229.333h371.732c5.889,0,10.667-4.779,10.667-10.667c0-5.888-4.778-10.667-10.667-10.667H436.729
		c-5.889,0-10.667,4.779-10.667,10.667C426.062,224.555,430.84,229.333,436.729,229.333z"/>
	<path fill="#58595B" d="M436.729,277.333h387.68c5.888,0,10.666-4.779,10.666-10.667c0-5.888-4.778-10.667-10.666-10.667h-387.68
		c-5.889,0-10.667,4.779-10.667,10.667C426.062,272.555,430.84,277.333,436.729,277.333z"/>
	<path fill="#58595B" d="M436.729,325.333h361.227c5.888,0,10.666-4.778,10.666-10.666c0-5.889-4.778-10.667-10.666-10.667H436.729
		c-5.889,0-10.667,4.778-10.667,10.667C426.062,320.555,430.84,325.333,436.729,325.333z"/>
	<path fill="#58595B" d="M436.729,373.333h387.68c5.888,0,10.666-4.778,10.666-10.666c0-5.889-4.778-10.667-10.666-10.667h-387.68
		c-5.889,0-10.667,4.778-10.667,10.667C426.062,368.555,430.84,373.333,436.729,373.333z"/>
</g>
</svg>
