<?xml version="1.0" encoding="utf-8"?>
<!-- Generator: Adobe Illustrator 16.0.0, SVG Export Plug-In . SVG Version: 6.00 Build 0)  -->
<!DOCTYPE svg PUBLIC "-//W3C//DTD SVG 1.1//EN" "http://www.w3.org/Graphics/SVG/1.1/DTD/svg11.dtd">
<svg version="1.1" id="optimization" xmlns="http://www.w3.org/2000/svg" xmlns:xlink="http://www.w3.org/1999/xlink" x="0px"
	 y="0px" width="1280px" height="800px" viewBox="0 0 1280 800" enable-background="new 0 0 1280 800" xml:space="preserve">
<g>
	<path fill="#ECF0F1" d="M262.586,471.155C258.266,448.094,256,424.312,256,400c0-212.094,171.914-384,384-384
		s384.001,171.906,384.001,384c0,24.312-2.267,48.094-6.587,71.125"/>
</g>
<g>
	<path fill="#00C7FA" d="M640,556.438l-207.391-85.344c-7.641-22.282-11.773-46.203-11.773-71.094
		c0-121.031,98.109-219.156,219.164-219.156c58.696,0,112,23.062,151.345,60.625"/>
</g>
<g>
	<path fill="#ED7161" d="M791.345,241.469C833.156,281.375,859.18,337.641,859.18,400c0,24.905-4.148,91.5-11.789,113.812
		L554.664,528"/>
</g>
<g>
	<path fill="#00C7FA" d="M524.445,471.78h229.336l263.633-0.655C984.07,649.219,827.781,784,640,784
		c-187.766,0-344.055-134.766-377.414-312.845L524.445,471.78z"/>
</g>
<g>
	<path fill="#656872" d="M640,800c-220.562,0-400-179.438-400-400S419.438,0,640,0c220.563,0,400,179.438,400,400
		S860.562,800,640,800L640,800z M640,32c-202.914,0-368,165.094-368,368s165.085,368,368,368s368-165.094,368-368S842.914,32,640,32
		L640,32z"/>
</g>
<g>
	<path fill="#656872" d="M847.391,487.156c-1.719,0-3.469-0.281-5.188-0.875c-8.358-2.875-12.812-11.969-9.945-20.328
		C839.5,444.781,843.18,422.594,843.18,400c0-56.062-22.336-108.25-62.883-146.953c-37.969-36.25-87.789-56.203-140.297-56.203
		c-112.023,0-203.164,91.125-203.164,203.156c0,22.625,3.672,44.781,10.906,65.906c2.867,8.359-1.586,17.469-9.945,20.312
		c-8.367,2.875-17.461-1.578-20.32-9.938c-8.391-24.469-12.641-50.125-12.641-76.281c0-129.672,105.492-235.156,235.164-235.156
		c60.773,0,118.445,23.094,162.391,65.062C849.328,274.688,875.18,335.094,875.18,400c0,26.141-4.258,51.812-12.656,76.328
		C860.251,482.969,854.039,487.156,847.391,487.156L847.391,487.156z"/>
</g>
<g>
	<path fill="#656872" d="M670.164,385.843c-4.094,0-8.188-1.562-11.312-4.688c-6.25-6.25-6.25-16.374,0-22.624l97.836-97.844
		c6.25-6.25,16.376-6.25,22.626,0c6.249,6.25,6.249,16.375,0,22.625l-97.837,97.843C678.352,384.28,674.258,385.843,670.164,385.843
		L670.164,385.843z"/>
</g>
<g>
	<path fill="#ECF0F1" d="M682.664,400c0,23.562-19.109,42.656-42.664,42.656S597.336,423.562,597.336,400
		s19.109-42.656,42.664-42.656S682.664,376.438,682.664,400z"/>
	<path fill="#656872" d="M640,458.655c-32.344,0-58.664-26.312-58.664-58.655s26.32-58.656,58.664-58.656
		s58.664,26.312,58.664,58.656S672.344,458.655,640,458.655L640,458.655z M640,373.343c-14.703,0-26.664,11.954-26.664,26.657
		s11.961,26.656,26.664,26.656s26.664-11.953,26.664-26.656S654.703,373.343,640,373.343L640,373.343z"/>
</g>
<g>
	<path fill="#656872" d="M640,145.781c-8.836,0-16-7.157-16-16V72.891c0-8.828,7.164-16,16-16s16,7.172,16,16v56.891
		C656,138.625,648.836,145.781,640,145.781L640,145.781z"/>
</g>
<g>
	<path fill="#656872" d="M967.109,415.999h-56.891c-8.836,0-16-7.155-16-15.999c0-8.845,7.164-16,16-16h56.891
		c8.836,0,16,7.155,16,16C983.109,408.844,975.945,415.999,967.109,415.999L967.109,415.999z"/>
</g>
<g>
	<path fill="#656872" d="M369.781,415.999h-56.891c-8.836,0-16-7.155-16-15.999c0-8.845,7.164-16,16-16h56.891
		c8.836,0,16,7.155,16,16C385.781,408.844,378.617,415.999,369.781,415.999L369.781,415.999z"/>
</g>
<g>
	<path fill="#656872" d="M504.906,181.969c-5.531,0-10.906-2.875-13.867-8l-28.445-49.25c-4.422-7.656-1.805-17.437,5.852-21.843
		c7.633-4.469,17.43-1.812,21.852,5.844l28.445,49.25c4.422,7.656,1.805,17.438-5.852,21.844
		C510.375,181.281,507.617,181.969,504.906,181.969L504.906,181.969z"/>
</g>
<g>
	<path fill="#656872" d="M874.047,280.89c-5.531,0-10.906-2.859-13.867-8c-4.422-7.641-1.805-17.438,5.852-21.859l49.25-28.438
		c7.634-4.438,17.445-1.797,21.852,5.844c4.422,7.656,1.805,17.438-5.852,21.859l-49.25,28.453
		C879.516,280.203,876.758,280.89,874.047,280.89L874.047,280.89z"/>
</g>
<g>
	<path fill="#656872" d="M405.953,280.89c-2.719,0-5.469-0.687-7.984-2.14l-49.25-28.453c-7.656-4.422-10.273-14.203-5.852-21.859
		c4.407-7.656,14.203-10.297,21.852-5.844l49.25,28.438c7.656,4.422,10.273,14.219,5.852,21.859
		C416.859,278.031,411.484,280.89,405.953,280.89L405.953,280.89z"/>
</g>
<g>
	<path fill="#656872" d="M775.095,181.969c-2.72,0-5.469-0.688-7.985-2.156c-7.656-4.406-10.273-14.188-5.852-21.844l28.445-49.25
		c4.414-7.656,14.195-10.297,21.852-5.844c7.656,4.406,10.273,14.187,5.852,21.843l-28.445,49.25
		C786,179.093,780.625,181.969,775.095,181.969L775.095,181.969z"/>
</g>
<g>
	<path fill="#656872" d="M1003.094,501.344H276.906c-8.836,0-16-7.172-16-16c0-8.844,7.164-16,16-16h726.188c8.836,0,16,7.156,16,16
		C1019.094,494.172,1011.93,501.344,1003.094,501.344L1003.094,501.344z"/>
</g>
<g>
	<g>
		<rect x="497.781" y="559.905" fill="#ECF0F1" width="284.438" height="97.812"/>
		<path fill="#656872" d="M782.219,673.719H497.781c-8.836,0-16-7.172-16-16.001v-97.812c0-8.827,7.164-15.999,16-15.999h284.438
			c8.836,0,16.001,7.172,16.001,15.999v97.812C798.22,666.547,791.055,673.719,782.219,673.719L782.219,673.719z M513.781,641.719
			h252.438v-65.812H513.781V641.719L513.781,641.719z"/>
	</g>
	<g>
		<polygon fill="#656872" points="608.781,624.812 535.734,624.812 535.734,592.812 608.781,592.812 		"/>
	</g>
	<g>
		<polygon fill="#656872" points="680.336,624.812 621.781,624.812 621.781,592.812 680.336,592.812 		"/>
	</g>
	<g>
		<polygon fill="#656872" points="744.266,624.812 693.336,624.812 693.336,592.812 744.266,592.812 		"/>
	</g>
</g>
</svg>
