<?xml version="1.0" encoding="utf-8"?>
<!-- Generator: Adobe Illustrator 16.0.0, SVG Export Plug-In . SVG Version: 6.00 Build 0)  -->
<!DOCTYPE svg PUBLIC "-//W3C//DTD SVG 1.1//EN" "http://www.w3.org/Graphics/SVG/1.1/DTD/svg11.dtd">
<svg version="1.1" id="quality-award" xmlns="http://www.w3.org/2000/svg" xmlns:xlink="http://www.w3.org/1999/xlink" x="0px"
	 y="0px" width="1280px" height="800px" viewBox="0 0 1280 800" enable-background="new 0 0 1280 800" xml:space="preserve">
<polyline fill="#ED7161" points="843.465,602.535 884.298,698.785 782.208,695.19 713.881,771.107 665.918,658.153 "/>
<polygon fill="#656872" points="709.056,800 651.426,664.3 680.41,652.005 718.707,742.216 775.432,679.207 860.17,682.188 
	828.974,608.684 857.958,596.389 908.427,715.384 788.984,711.173 "/>
<polyline fill="#ED7161" points="614.619,654.11 567.362,771.107 497.715,696.389 395.701,701.768 440.515,590.779 "/>
<polygon fill="#656872" points="572.695,799.908 491.214,712.494 371.865,718.779 425.915,584.894 455.114,596.665 419.537,684.755 
	504.216,680.283 562.03,742.309 600.035,648.21 629.204,660.013 "/>
<path fill="#00C7FA" d="M969.191,344.921c0,16.767-30.43,30.921-32.98,46.949c-2.581,16.459,21.978,39.296,16.937,54.817
	c-5.118,15.799-38.466,19.825-45.889,34.394c-7.516,14.755,8.713,44.107-0.938,57.354c-9.714,13.354-42.663,6.916-54.281,18.534
	c-11.649,11.618-5.224,44.566-18.549,54.311c-13.278,9.62-42.616-6.64-57.354,0.892c-14.569,7.453-18.61,40.756-34.409,45.903
	c-15.491,5.026-38.328-19.532-54.787-16.935c-16.06,2.535-30.214,32.979-46.949,32.979c-16.751,0-30.921-30.444-46.935-32.979
	c-16.459-2.598-39.311,21.961-54.817,16.935c-15.783-5.147-19.81-38.45-34.363-45.903c-14.753-7.531-44.106,8.729-57.369-0.923
	c-13.324-9.713-6.915-42.661-18.549-54.279c-11.634-11.649-44.567-5.195-54.28-18.534c-9.682-13.277,6.592-42.631-0.922-57.354
	c-7.454-14.568-40.787-18.625-45.904-34.394c-5.056-15.521,19.502-38.358,16.936-54.817c-2.551-16.028-32.98-30.213-32.98-46.949
	s30.429-30.905,32.98-46.934c2.566-16.459-22.007-39.296-16.936-54.787c5.102-15.783,38.42-19.856,45.889-34.425
	c7.5-14.723-8.744-44.076,0.907-57.338c9.713-13.324,42.663-6.9,54.295-18.549c11.634-11.634,5.21-44.583,18.549-54.28
	c13.264-9.667,42.616,6.578,57.354-0.922c14.554-7.454,18.61-40.787,34.378-45.905c15.522-5.041,38.344,19.502,54.833,16.936
	c16.014-2.536,30.184-32.98,46.935-32.98s30.92,30.444,46.949,32.98c16.459,2.566,39.296-21.977,54.818-16.92
	c15.782,5.133,19.824,38.436,34.378,45.889c14.769,7.53,44.106-8.745,57.369,0.922c13.325,9.713,6.915,42.646,18.549,54.28
	c11.634,11.649,44.583,5.225,54.266,18.549c9.681,13.263-6.578,42.616,0.938,57.354c7.453,14.553,40.771,18.611,45.889,34.394
	c5.041,15.506-19.518,38.344-16.937,54.803C938.762,314.016,969.191,328.185,969.191,344.921z"/>
<path fill="#656872" d="M639.992,689.856c-15.521,0-26.556-11.479-36.299-21.622c-3.889-4.058-10.42-10.851-13.171-11.573
	c-3.396,0.016-11.065,4.135-16.675,7.132c-9.835,5.256-19.993,10.696-31.089,10.696c-3.259,0-6.409-0.477-9.375-1.444
	c-14.677-4.78-21.562-19.057-27.647-31.644c-2.489-5.133-6.623-13.708-9.082-15.245l0,0c-0.077,0-9.697,0.154-17.903,1.599
	c-6.609,1.184-13.433,2.396-20.179,2.396c-8.637,0-15.614-2.028-21.331-6.177c-12.371-9.021-14.522-24.65-16.429-38.451
	c-0.799-5.701-2.105-15.245-4.011-17.459c-2.151-1.844-11.695-3.149-17.396-3.934c-13.801-1.905-29.43-4.057-38.451-16.428
	c-8.99-12.341-6.224-27.862-3.796-41.571c1.015-5.702,2.72-15.245,1.567-17.935c-1.475-2.351-10.082-6.516-15.214-9.006
	c-12.603-6.085-26.879-13.002-31.628-27.647c-4.702-14.445,2.72-28.292,9.252-40.51c2.766-5.179,7.407-13.831,7.1-16.766
	c-0.691-2.613-7.5-9.16-11.557-13.063c-10.128-9.743-21.607-20.778-21.607-36.284c0-15.507,11.479-26.541,21.607-36.269
	c4.072-3.919,10.865-10.45,11.587-13.217c0.277-2.782-4.364-11.434-7.13-16.597c-6.547-12.233-13.97-26.08-9.237-40.542
	c4.718-14.6,18.996-21.53,31.597-27.631c5.148-2.49,13.739-6.654,15.26-9.113c1.106-2.582-0.599-12.141-1.614-17.842
	c-2.428-13.693-5.194-29.2,3.781-41.54c9.021-12.372,24.65-14.523,38.451-16.429c5.702-0.783,15.261-2.105,17.474-4.011
	c1.829-2.136,3.15-11.695,3.935-17.397c1.905-13.8,4.072-29.445,16.459-38.451c5.701-4.165,12.679-6.178,21.346-6.178
	c6.747,0,13.586,1.214,20.179,2.382c8.422,1.491,17.935,1.599,17.98,1.552c2.32-1.46,6.485-10.051,8.976-15.199
	c6.085-12.587,12.985-26.879,27.646-31.628c2.966-0.968,6.132-1.46,9.391-1.46c11.096,0,21.269,5.456,31.104,10.712
	c5.594,2.997,13.278,7.1,16.675,7.1c2.735-0.692,9.267-7.485,13.155-11.542C613.437,11.48,624.471,0,639.992,0
	s26.556,11.48,36.284,21.607c3.903,4.072,10.435,10.865,13.2,11.587c3.366-0.03,11.035-4.134,16.629-7.115
	c9.836-5.271,20.01-10.711,31.105-10.711c3.273,0,6.438,0.492,9.42,1.46c14.646,4.764,21.547,19.041,27.647,31.627
	c2.475,5.133,6.623,13.708,9.082,15.245l0,0c0.077,0,9.683-0.138,17.904-1.598c6.593-1.184,13.417-2.397,20.179-2.397
	c8.637,0,15.629,2.028,21.33,6.178c12.372,9.021,14.523,24.65,16.429,38.451c0.799,5.702,2.105,15.261,4.011,17.458
	c2.152,1.844,11.711,3.166,17.412,3.949c13.801,1.906,29.431,4.073,38.42,16.444c8.991,12.31,6.239,27.832,3.797,41.525
	c-1.015,5.717-2.705,15.275-1.553,17.965c1.476,2.336,10.066,6.501,15.199,8.991c12.602,6.085,26.879,13.001,31.627,27.663
	c4.688,14.431-2.72,28.262-9.251,40.479c-2.767,5.164-7.407,13.832-7.101,16.767c0.691,2.628,7.484,9.16,11.558,13.079
	c10.127,9.728,21.607,20.762,21.607,36.269c0,15.521-11.48,26.571-21.623,36.3c-4.058,3.903-10.851,10.435-11.572,13.2
	c-0.276,2.798,4.349,11.45,7.131,16.629c6.531,12.218,13.938,26.049,9.251,40.494c-4.748,14.661-19.041,21.577-31.643,27.663
	c-5.117,2.475-13.693,6.624-15.229,9.067c-1.122,2.612,0.583,12.202,1.599,17.919c2.427,13.693,5.179,29.185-3.797,41.51
	c-9.021,12.386-24.681,14.537-38.496,16.443c-5.687,0.784-15.215,2.09-17.412,3.98c-1.845,2.151-3.166,11.711-3.95,17.412
	c-1.905,13.785-4.057,29.415-16.413,38.451c-5.747,4.164-12.709,6.161-21.314,6.161c-6.763,0-13.586-1.213-20.209-2.381
	c-8.422-1.521-17.936-1.568-17.981-1.568c-2.367,1.476-6.531,10.066-9.005,15.199c-6.102,12.587-13.002,26.864-27.663,31.644
	c-2.981,0.969-6.132,1.445-9.391,1.445c-11.079,0-21.239-5.441-31.073-10.696c-5.594-2.998-13.263-7.116-16.66-7.116
	c-2.781,0.706-9.328,7.515-13.231,11.588C666.518,678.377,655.498,689.856,639.992,689.856L639.992,689.856z M590.522,625.203
	c1.69,0,3.35,0.139,4.994,0.4c12.817,2.028,22.407,12.018,30.875,20.823c3.98,4.149,10.573,11.004,13.601,11.91
	c3.012-0.906,9.59-7.745,13.555-11.88c8.483-8.836,18.104-18.841,30.936-20.854c12.602-2.029,25.081,4.317,36.516,10.435
	c5.193,2.781,13.031,6.978,16.213,6.978c1.921-1.276,6.178-10.067,8.713-15.322c5.349-11.05,11.419-23.575,23.053-29.537
	c9.943-5.103,24.512-3.766,37.806-1.384c8.652,1.537,17.734,1.567,17.78,1.583c1.322-1.782,2.644-11.388,3.442-17.119
	c1.69-12.234,3.596-26.111,12.925-35.408c9.267-9.268,23.113-11.173,35.331-12.864c5.732-0.783,15.337-2.105,17.535-4.026
	c0.737-2.135-0.938-11.587-1.952-17.242c-2.152-12.188-4.595-25.987,1.398-37.76c5.932-11.649,18.473-17.72,29.537-23.067
	c5.241-2.536,14.017-6.777,15.507-9.298c0.015-2.243-4.487-10.649-7.177-15.66c-5.855-10.957-12.51-23.359-10.451-36.483
	c2.045-12.832,12.034-22.438,20.84-30.891c3.98-3.825,11.388-10.941,11.972-13.846c-0.599-2.429-7.715-9.267-11.956-13.354
	c-8.821-8.468-18.811-18.058-20.84-30.875c-2.074-13.155,4.58-25.557,10.436-36.515c2.689-5.01,7.191-13.416,6.977-16.29
	c-1.29-1.875-10.065-6.132-15.307-8.667c-11.049-5.348-23.574-11.403-29.521-23.021c-6.009-11.787-3.566-25.588-1.398-37.759
	c0.999-5.655,2.689-15.122,1.567-17.796c-1.829-1.383-11.388-2.705-17.104-3.489c-12.232-1.69-26.095-3.596-35.408-12.909
	c-9.282-9.297-11.203-23.145-12.878-35.377c-0.784-5.579-2.061-14.845-3.904-17.335c-0.062,0-0.968-0.123-2.688-0.123
	c-3.98,0-9.176,0.922-14.677,1.906c-13.247,2.367-27.816,3.719-37.775-1.383c-11.648-5.963-17.703-18.488-23.052-29.537
	c-2.536-5.241-6.777-14.016-9.312-15.507c-2.628,0.185-10.175,4.227-15.676,7.162c-11.403,6.101-23.836,12.402-36.438,10.451
	c-12.848-2.044-22.453-12.033-30.921-20.839c-4.088-4.257-10.927-11.372-13.831-11.972c-2.443,0.6-9.282,7.715-13.37,11.972
	c-8.468,8.806-18.058,18.795-30.875,20.824c-12.848,2.028-25.08-4.334-36.515-10.435c-5.501-2.951-13.032-6.992-16.243-6.992
	c-1.921,1.306-6.179,10.081-8.714,15.322c-5.349,11.065-11.403,23.59-23.021,29.538c-10.021,5.102-24.513,3.734-37.76,1.398
	c-8.683-1.552-17.766-1.583-17.812-1.583c-1.367,1.829-2.704,11.418-3.488,17.135c-1.69,12.233-3.597,26.08-12.894,35.377
	c-9.298,9.313-23.16,11.219-35.393,12.909c-5.732,0.784-15.322,2.121-17.52,4.026c-0.722,2.121,0.968,11.587,1.967,17.243
	c2.167,12.171,4.626,25.972-1.368,37.729c-5.963,11.649-18.487,17.719-29.537,23.067c-5.241,2.536-14.016,6.793-15.506,9.329
	c-0.016,2.259,4.487,10.635,7.161,15.645c5.871,10.942,12.51,23.344,10.466,36.453c-2.043,12.863-12.033,22.453-20.854,30.921
	c-4.242,4.088-11.357,10.926-11.956,13.815c0.599,2.429,7.714,9.282,11.956,13.37c8.821,8.468,18.811,18.073,20.839,30.874
	c2.059,13.155-4.58,25.558-10.435,36.484c-2.689,5.025-7.192,13.432-6.993,16.32c1.307,1.875,10.082,6.132,15.322,8.668
	c11.05,5.348,23.59,11.418,29.553,23.052c5.993,11.757,3.55,25.558,1.368,37.729c-0.999,5.67-2.689,15.138-1.567,17.811
	c1.813,1.384,11.403,2.706,17.121,3.489c12.232,1.675,26.095,3.581,35.407,12.895c9.282,9.281,11.203,23.143,12.879,35.377
	c0.783,5.578,2.06,14.83,3.888,17.335c0.2,0.03,0.999,0.123,2.705,0.123l0,0c3.965,0,9.175-0.938,14.676-1.905
	c13.248-2.367,27.802-3.72,37.79,1.383c11.634,5.962,17.689,18.487,23.037,29.553c2.536,5.24,6.777,14.031,9.313,15.521
	c2.566-0.215,10.097-4.242,15.613-7.192C568.945,630.721,579.227,625.203,590.522,625.203L590.522,625.203z"/>
<g>
	<path fill="#ED7161" d="M845.387,344.921c0,113.447-91.963,205.395-205.395,205.395s-205.395-91.947-205.395-205.395
		c0-113.432,91.963-205.395,205.395-205.395S845.387,231.489,845.387,344.921z"/>
</g>
<g>
	<g>
		<path fill="#656872" d="M639.992,484.955c-70.832,0-128.462-62.025-128.462-138.267s57.63-138.267,128.462-138.267
			c70.847,0,128.477,62.025,128.477,138.267S710.839,484.955,639.992,484.955L639.992,484.955z M639.992,239.896
			c-53.48,0-96.988,47.902-96.988,106.793c0,58.89,43.508,106.792,96.988,106.792s97.003-47.902,97.003-106.792
			C736.995,287.798,693.473,239.896,639.992,239.896L639.992,239.896z"/>
	</g>
	<g>
		<path fill="#656872" d="M737.765,486.368c-4.027,0-8.054-1.537-11.127-4.61l-71.631-71.63c-6.147-6.147-6.147-16.105,0-22.254
			c6.147-6.146,16.105-6.146,22.253,0l71.631,71.631c6.146,6.148,6.146,16.106,0,22.253
			C745.816,484.831,741.79,486.368,737.765,486.368L737.765,486.368z"/>
	</g>
</g>
</svg>
