<?xml version="1.0" encoding="utf-8"?>
<!-- Generator: Adobe Illustrator 16.0.0, SVG Export Plug-In . SVG Version: 6.00 Build 0)  -->
<!DOCTYPE svg PUBLIC "-//W3C//DTD SVG 1.1//EN" "http://www.w3.org/Graphics/SVG/1.1/DTD/svg11.dtd">
<svg version="1.1" id="responsive-design" xmlns="http://www.w3.org/2000/svg" xmlns:xlink="http://www.w3.org/1999/xlink" x="0px"
	 y="0px" width="1280px" height="800px" viewBox="0 0 1280 800" enable-background="new 0 0 1280 800" xml:space="preserve">
<g>
	<path fill="#ECF0F1" d="M256,400v92.688c0,14.625,11.86,26.484,26.484,26.484h635.579V400"/>
</g>
<g>
	<path fill="#00C7FA" d="M918.063,400V270.89V42.484c0-14.625-11.845-26.484-26.47-26.484H282.484C267.86,16,256,27.859,256,42.484
		V400"/>
</g>
<g>
	<path fill="#656872" d="M754.203,535.172H282.484c-23.43,0-42.484-19.062-42.484-42.484V42.484C240,19.062,259.055,0,282.484,0
		h609.109c23.414,0,42.469,19.062,42.469,42.484V270.89c0,8.844-7.164,16-16,16s-16-7.156-16-16V42.484
		c0-5.781-4.695-10.484-10.469-10.484H282.484C276.703,32,272,36.703,272,42.484v450.203c0,5.781,4.703,10.483,10.484,10.483
		h471.719c8.836,0,16,7.157,16,16.001C770.203,528.015,763.039,535.172,754.203,535.172L754.203,535.172z"/>
</g>
<g>
	<polyline fill="#BDC3C7" points="653.234,535.172 653.234,625.109 520.828,625.109 520.828,535.172 	"/>
	<path fill="#656872" d="M653.234,641.109H520.828c-8.836,0-16-7.156-16-16v-89.938c0-8.844,7.164-16,16-16s16,7.156,16,16v73.938
		h100.406v-73.938c0-8.844,7.164-16,16-16s16,7.156,16,16v89.938C669.234,633.953,662.07,641.109,653.234,641.109L653.234,641.109z"
		/>
</g>
<g>
	<path fill="#656872" d="M754.203,429.234H256c-8.836,0-16-7.157-16-16c0-8.844,7.164-16,16-16h498.203c8.836,0,16,7.156,16,16
		C770.203,422.077,763.039,429.234,754.203,429.234L754.203,429.234z"/>
</g>
<g>
	<path fill="#656872" d="M706.203,641.109H467.859c-8.836,0-16-7.156-16-16s7.164-16,16-16h238.344c8.836,0,16,7.156,16,16
		S715.039,641.109,706.203,641.109L706.203,641.109z"/>
</g>
<g>
	<line fill="none" x1="587.031" y1="466.203" x2="587.031" y2="466.203"/>
</g>
<g>
	<g>
		<path fill="#ECF0F1" d="M1024.001,678.078v79.438c0,14.625-11.86,26.484-26.485,26.484H785.656
			c-14.624,0-26.484-11.859-26.484-26.484v-79.438"/>
	</g>
	<g>
		<rect x="759.172" y="386.766" fill="#ED7161" width="264.829" height="291.312"/>
	</g>
	<g>
		<path fill="#ECF0F1" d="M759.172,386.766v-79.453c0-14.625,11.86-26.484,26.484-26.484h211.859
			c14.625,0,26.485,11.859,26.485,26.484v79.453H759.172z"/>
	</g>
	<g>
		<path fill="#656872" d="M997.516,800H785.656c-23.43,0-42.484-19.062-42.484-42.484V307.312c0-23.422,19.055-42.484,42.484-42.484
			h211.859c23.43,0,42.484,19.062,42.484,42.484v450.203C1040,780.938,1020.945,800,997.516,800L997.516,800z M785.656,296.828
			c-5.781,0-10.484,4.704-10.484,10.485v450.203c0,5.781,4.703,10.484,10.484,10.484h211.859c5.781,0,10.484-4.703,10.484-10.484
			V307.312c0-5.781-4.703-10.485-10.484-10.485H785.656L785.656,296.828z"/>
	</g>
	<g>
		<path fill="#656872" d="M1024.001,402.766H759.172c-8.836,0-16-7.156-16-16s7.164-16,16-16h264.829
			c8.835,0,15.999,7.156,15.999,16S1032.836,402.766,1024.001,402.766L1024.001,402.766z"/>
	</g>
	<g>
		<path fill="#656872" d="M1024.001,694.078H759.172c-8.836,0-16-7.156-16-16s7.164-16,16-16h264.829
			c8.835,0,15.999,7.156,15.999,16S1032.836,694.078,1024.001,694.078L1024.001,694.078z"/>
	</g>
	<g>
		<path fill="#656872" d="M904.828,349.797h-26.484c-8.836,0-16-7.156-16-16s7.164-16,16-16h26.484c8.836,0,16,7.156,16,16
			S913.664,349.797,904.828,349.797L904.828,349.797z"/>
	</g>
	<g>
		<line fill="none" x1="891.594" y1="731.047" x2="891.594" y2="731.047"/>
	</g>
</g>
</svg>
