<?xml version="1.0" encoding="utf-8"?>
<!-- Generator: Adobe Illustrator 16.0.0, SVG Export Plug-In . SVG Version: 6.00 Build 0)  -->
<!DOCTYPE svg PUBLIC "-//W3C//DTD SVG 1.1//EN" "http://www.w3.org/Graphics/SVG/1.1/DTD/svg11.dtd">
<svg version="1.1" id="wireframes" xmlns="http://www.w3.org/2000/svg" xmlns:xlink="http://www.w3.org/1999/xlink" x="0px" y="0px"
	 width="1280px" height="800px" viewBox="0 0 1280 800" enable-background="new 0 0 1280 800" xml:space="preserve">
<g>
	<g>
		<line fill="none" x1="1023.334" y1="172.949" x2="1023.334" y2="225.879"/>
	</g>
	<g>
		<rect x="256.667" y="16.667" fill="#BDC3C7" width="766.667" height="156.283"/>
	</g>
	<g>
		<rect x="256.667" y="172.949" fill="#ECF0F1" width="766.667" height="610.385"/>
	</g>
	<g>
		<g>
			<path fill="#656872" d="M1040,800H240V0h800V800L1040,800z M273.333,766.666h733.333V33.333H273.333V766.666L273.333,766.666z"/>
		</g>
		<g>
			<path fill="none" d="M1013.975,358.171"/>
		</g>
		<g>
			<path fill="none" d="M1013.975,180.094"/>
		</g>
		<g>
			<polygon fill="#656872" points="1019.428,189.616 267.197,189.616 267.197,156.282 1019.428,156.282 			"/>
		</g>
	</g>
	<g>
		<g>
			<line fill="none" x1="345.485" y1="80.566" x2="345.485" y2="112.5"/>
			<polygon fill="#656872" points="362.151,112.5 328.818,112.5 328.818,80.566 362.151,80.566 			"/>
		</g>
		<g>
			<line fill="none" x1="419.134" y1="80.566" x2="419.134" y2="112.5"/>
			<polygon fill="#656872" points="435.801,112.5 402.468,112.5 402.468,80.566 435.801,80.566 			"/>
		</g>
		<g>
			<line fill="none" x1="492.734" y1="80.566" x2="492.734" y2="112.5"/>
			<polygon fill="#656872" points="509.401,112.5 476.067,112.5 476.067,80.566 509.401,80.566 			"/>
		</g>
	</g>
	<g>
		<polygon fill="#656872" points="934.515,113.184 597.927,113.184 597.927,79.85 934.515,79.85 		"/>
	</g>
</g>
<rect x="416.384" y="511.8" fill="#00C7FA" width="191.666" height="191.667"/>
<path fill="#656872" d="M624.717,720.133h-225v-225h225V720.133L624.717,720.133z M433.05,686.8h158.334V528.467H433.05V686.8
	L433.05,686.8z"/>
<g>
	<rect x="416.384" y="256.25" fill="#ED7161" width="447.233" height="191.666"/>
	<path fill="#656872" d="M880.283,464.584H399.717v-225h480.566V464.584L880.283,464.584z M433.05,431.25h413.9V272.917h-413.9
		V431.25L433.05,431.25z"/>
</g>
<rect x="671.95" y="511.8" fill="#00C7FA" width="191.667" height="191.667"/>
<path fill="#656872" d="M880.283,720.133h-225v-225h225V720.133L880.283,720.133z M688.617,686.8H846.95V528.467H688.617V686.8
	L688.617,686.8z"/>
</svg>
